<?xml version="1.0" standalone="no"?>
<!DOCTYPE svg PUBLIC "-//W3C//DTD SVG 20010904//EN"
 "http://www.w3.org/TR/2001/REC-SVG-20010904/DTD/svg10.dtd">
<svg version="1.0" xmlns="http://www.w3.org/2000/svg"
 width="512.000000pt" height="512.000000pt" viewBox="0 0 512.000000 512.000000"
 preserveAspectRatio="xMidYMid meet">
<metadata>
Created by potrace 1.14, written by Peter Selinger 2001-2017
</metadata>
<g transform="translate(0.000000,512.000000) scale(0.100000,-0.100000)"
fill="#000000" stroke="none">
<path d="M1160 5105 c-341 -58 -639 -226 -841 -475 -19 -23 -39 -47 -44 -54
-6 -6 -33 -47 -61 -91 -108 -171 -170 -339 -202 -545 -10 -63 -9 -2692 1
-2764 52 -376 265 -718 584 -940 29 -20 57 -36 62 -36 5 0 11 -3 13 -7 3 -8
126 -71 188 -97 83 -34 208 -67 320 -84 25 -4 653 -7 1395 -7 l1350 0 104 23
c487 109 857 436 1017 897 32 92 43 140 63 277 6 36 9 632 9 1373 0 1215 -1
1317 -18 1410 -77 430 -348 796 -735 991 -82 42 -230 94 -320 113 -27 6 -63
14 -80 18 -16 4 -637 8 -1380 9 -1057 1 -1366 -1 -1425 -11z"/>
</g>
</svg>
