<svg width="31" height="502" viewBox="0 0 31 502" fill="none" xmlns="http://www.w3.org/2000/svg">
<rect x="5.5" width="16" height="466" fill="#4B2522"/>
<path fill-rule="evenodd" clip-rule="evenodd" d="M3.51947 457.256C1.85191 469.234 -5.62667 491.944 8.17325 499.885C14.5257 503.54 24.7031 502.282 27.7635 497.464C30.8937 492.538 31.5888 470.869 24.6711 450.089C17.1041 427.371 3.47008 440.681 3.51947 457.256ZM13.7139 498.599C13.3628 498.13 12.4277 495.672 11.6359 493.138C10.8452 490.604 9.83671 484.077 9.39595 478.633C8.95519 473.189 8.1857 469.119 7.68518 469.589C7.1859 470.058 6.09643 473.08 5.26471 476.305C4.08312 480.885 4.07938 483.274 5.24852 487.226C6.74139 492.27 10.3771 497.74 12.9806 498.861C14.146 499.363 14.258 499.323 13.7139 498.599Z" fill="#4B2522"/>
</svg>
