<svg width="31" height="780" viewBox="0 0 31 780" fill="none" xmlns="http://www.w3.org/2000/svg">
<rect x="6" width="16" height="744" fill="#FFEFDA"/>
<path fill-rule="evenodd" clip-rule="evenodd" d="M4.01947 735.256C2.35191 747.234 -5.12667 769.944 8.67325 777.885C15.0257 781.54 25.2031 780.282 28.2635 775.464C31.3937 770.538 32.0888 748.869 25.1711 728.089C17.6041 705.371 3.97008 718.681 4.01947 735.256ZM14.2139 776.599C13.8628 776.13 12.9277 773.672 12.1359 771.138C11.3452 768.604 10.3367 762.077 9.89595 756.633C9.45519 751.189 8.6857 747.119 8.18518 747.589C7.6859 748.058 6.59643 751.08 5.76471 754.305C4.58312 758.885 4.57938 761.274 5.74852 765.226C7.24139 770.27 10.8771 775.74 13.4806 776.861C14.646 777.363 14.758 777.323 14.2139 776.599Z" fill="#FFEFDA"/>
</svg>
