<svg width="31" height="1064" viewBox="0 0 31 1064" fill="none" xmlns="http://www.w3.org/2000/svg">
<rect x="6" width="16" height="1028" fill="#4B2522"/>
<path fill-rule="evenodd" clip-rule="evenodd" d="M4.01947 1019.26C2.35191 1031.23 -5.12667 1053.94 8.67325 1061.88C15.0257 1065.54 25.2031 1064.28 28.2635 1059.46C31.3937 1054.54 32.0888 1032.87 25.1711 1012.09C17.6041 989.371 3.97008 1002.68 4.01947 1019.26ZM14.2139 1060.6C13.8628 1060.13 12.9277 1057.67 12.1359 1055.14C11.3452 1052.6 10.3367 1046.08 9.89595 1040.63C9.45519 1035.19 8.6857 1031.12 8.18518 1031.59C7.6859 1032.06 6.59643 1035.08 5.76471 1038.3C4.58312 1042.89 4.57938 1045.27 5.74852 1049.23C7.24139 1054.27 10.8771 1059.74 13.4806 1060.86C14.646 1061.36 14.758 1061.32 14.2139 1060.6Z" fill="#4B2522"/>
</svg>
