<svg width="406" height="330" viewBox="0 0 406 330" fill="none" xmlns="http://www.w3.org/2000/svg">
<path fill-rule="evenodd" clip-rule="evenodd" d="M0.0283747 77.8184C0.0487993 128.086 12.1089 116.928 22.6195 144.628C25.5846 152.437 25.892 160.55 25.9507 232.463C26.0055 298.914 26.1531 305.559 27.726 312.509C28.6699 316.677 30.3081 321.906 31.3655 324.129C36.1912 334.274 43.9224 330.784 46.2472 317.41C48.625 303.738 47.2734 270.244 42.0184 212.57C41.1397 202.931 40.3708 185.454 40.3093 173.731C40.2119 155.157 40.4209 151.838 41.9314 147.916C43.8476 142.942 46.6463 141.441 50.6217 143.255C55.4804 145.472 57.5092 151.463 60.5273 172.499C62.8313 188.561 65.1742 196.647 69.0937 202.066C73.7462 208.498 81.1539 210.646 84.9022 206.649C89.2303 202.034 89.6787 194.061 87.4257 161.72C84.9911 126.766 87.596 115.947 98.4493 115.947C102.47 115.947 106.037 118.43 109.159 123.407C111.964 127.877 113.679 133.2 118.189 151.43C120.231 159.682 122.897 168.396 124.114 170.793C130.609 183.583 144.653 178.194 152.211 160.012C157.682 146.85 161.018 143.418 168.339 143.418C173.569 143.418 177.096 146.922 179.404 154.408C180.957 159.445 181.126 164.008 181.126 200.729C181.126 237.959 181.271 241.726 182.806 244.541C184.844 248.277 188.406 248.714 190.517 245.486C193.689 240.638 194.197 230.568 192.921 197.86C191.683 166.198 191.918 154.943 193.931 149.319C196.03 143.452 200.84 143.318 203.797 149.044C205.912 153.143 207.114 166.44 207.182 186.52C207.242 204.394 208.108 210.551 210.677 211.391C213.357 212.269 214.665 204.339 217.058 172.7C219.877 135.452 223.495 120.891 230.362 119.165C237.014 117.493 241.551 125.988 247.924 152.045C254.379 178.441 258.446 185.465 265.35 182.151C269.226 180.29 270.315 177.398 271.022 167.076C272.133 150.878 274.539 146.26 281.867 146.26C285.525 146.26 285.846 146.49 287.503 150.286C291.29 158.968 291.77 166.999 291.505 217.306C291.365 243.882 291.664 269.063 292.179 273.962C293.617 287.677 297.836 294.009 301.198 287.498C304.279 281.53 304.789 267.281 303.521 222.607C301.947 167.192 303.129 153.521 309.713 151.013C315.204 148.923 318.23 152.34 324.452 167.656C329.418 179.877 332.284 184.589 336.494 187.455C340.786 190.376 346.112 190.626 348.468 188.017C350.684 185.565 350.574 178.598 348.048 161.378C345.127 141.472 346.7 133.712 354.302 130.531C361.798 127.395 363.737 130.627 363.17 145.313C362.357 166.325 362.647 171.593 364.776 174.45C368.416 179.339 373.507 178.487 376.097 172.556C377.693 168.899 377.864 165.589 377.922 137.261C377.978 109.467 378.168 105.652 379.631 102.864C451.331 -33.763 372.167 5.1141 198.522 5.1141H0L0.0283747 77.8184ZM378.919 97.2377C374.054 101.931 372.669 105.949 372.662 115.394C372.655 123.107 372.009 123.097 370.732 115.365C369.472 107.728 370.957 100.744 374.622 97.0729C377.027 94.6639 378.256 94.0709 382.368 93.3406C382.767 93.2695 381.215 95.023 378.919 97.2377ZM225.447 116.309C220.367 121.523 219.223 123.378 217.132 129.807L214.706 137.261L215.235 131.103C216.1 121.045 220.584 113.361 226.999 110.947C231.178 109.373 230.746 110.869 225.447 116.309ZM161.737 140.181C159.396 141.515 156.314 143.716 154.889 145.074C151.978 147.847 150.615 147.479 152.277 144.368C153.37 142.323 161.872 137.75 164.574 137.755C165.354 137.756 164.077 138.848 161.737 140.181ZM127.16 156.883C128.84 163.301 133.447 171.837 135.233 171.837C135.764 171.837 136.199 172.263 136.199 172.784C136.199 174.146 133.691 173.95 130.594 172.346C127.08 170.525 124.963 165.052 124.237 155.907C123.549 147.219 124.736 147.616 127.16 156.883ZM255.815 160.11C258.416 169.781 260.607 175.39 262.708 177.757C263.979 179.189 263.988 179.415 262.778 179.415C259.023 179.415 254.897 170.714 253.902 160.693C253.605 157.704 253.141 154.194 252.872 152.893C251.755 147.495 253.716 152.306 255.815 160.11ZM368.381 170.882C369.043 172.925 368.952 173.082 367.709 172.048C366.918 171.391 365.73 168.918 365.069 166.554C364.083 163.026 364.098 161.286 365.157 156.862L366.445 151.47L367.031 159.995C367.353 164.685 367.961 169.583 368.381 170.882ZM71.2993 191.555C72.8864 195.911 76.0796 200.933 78.4687 202.83C79.4108 203.578 79.5186 203.995 78.7733 204.014C76.8239 204.065 70.9276 198.267 68.9196 194.324C66.3914 189.361 64.3362 179.348 64.4014 172.31L64.4544 166.626L67.132 177.047C68.6047 182.778 70.4803 189.306 71.2993 191.555ZM337.312 182.443C338.306 183.328 340.174 184.473 341.464 184.989C343.775 185.912 343.767 185.926 340.862 185.986C336.665 186.071 333.352 183.019 331.099 176.99C327.982 168.644 328.777 166.857 332.326 174.231C334.075 177.864 336.317 181.56 337.312 182.443ZM187.111 240.381C188.091 243.918 188.067 243.986 186.356 242.435C183.465 239.815 182.209 232.308 182.898 221.776C183.237 216.592 183.828 211.867 184.212 211.276C184.595 210.685 185.177 216.17 185.503 223.464C185.831 230.758 186.554 238.371 187.111 240.381ZM33.9959 305.404C34.5974 312.438 35.3078 319.258 35.5745 320.561C35.9878 322.571 35.9027 322.681 35.0174 321.288C33.0397 318.175 30.2778 302.995 29.1438 288.995C28.2557 278.026 28.2585 271.395 29.1561 258.682C29.7879 249.732 30.6155 241.344 30.9948 240.041C31.375 238.739 31.9595 250.035 32.2943 265.144C32.6292 280.254 33.3953 298.37 33.9959 305.404ZM297.854 279.933C298.939 284.77 298.429 285.985 296.948 282.09C295.109 277.251 294.152 270.303 294.152 261.777C294.152 248.151 295.513 248.883 296.252 262.908C296.627 270.013 297.347 277.675 297.854 279.933Z" fill="#4B2522"/>
</svg>
