<svg width="31" height="1360" viewBox="0 0 31 1360" fill="none" xmlns="http://www.w3.org/2000/svg">
<rect x="6" width="16" height="1324" fill="#37682D"/>
<path fill-rule="evenodd" clip-rule="evenodd" d="M4.01947 1315.26C2.35191 1327.23 -5.12667 1349.94 8.67325 1357.88C15.0257 1361.54 25.2031 1360.28 28.2635 1355.46C31.3937 1350.54 32.0888 1328.87 25.1711 1308.09C17.6041 1285.37 3.97008 1298.68 4.01947 1315.26ZM14.2139 1356.6C13.8628 1356.13 12.9277 1353.67 12.1359 1351.14C11.3452 1348.6 10.3367 1342.08 9.89595 1336.63C9.45519 1331.19 8.6857 1327.12 8.18518 1327.59C7.6859 1328.06 6.59643 1331.08 5.76471 1334.3C4.58312 1338.89 4.57938 1341.27 5.74852 1345.23C7.24139 1350.27 10.8771 1355.74 13.4806 1356.86C14.646 1357.36 14.758 1357.32 14.2139 1356.6Z" fill="#37682D"/>
</svg>
