<svg width="31" height="64" viewBox="0 0 31 64" fill="none" xmlns="http://www.w3.org/2000/svg">
<path fill-rule="evenodd" clip-rule="evenodd" d="M4.01947 19.2564C2.35191 31.2339 -5.12667 53.9436 8.67325 61.8847C15.0257 65.54 25.2031 64.2824 28.2635 59.4639C31.3937 54.538 32.0888 32.8687 25.1711 12.0891C17.6041 -10.6292 3.97008 2.68149 4.01947 19.2564ZM14.2139 60.5991C13.8628 60.1298 12.9277 57.6724 12.1359 55.1383C11.3452 52.6042 10.3367 46.0768 9.89595 40.6331C9.45519 35.1894 8.6857 31.1194 8.18518 31.5887C7.6859 32.058 6.59643 35.0802 5.76471 38.3048C4.58312 42.8854 4.57938 45.2741 5.74852 49.2264C7.24139 54.2704 10.8771 59.7397 13.4806 60.8612C14.646 61.3629 14.758 61.3233 14.2139 60.5991Z" fill="#FFEFDA"/>
</svg>
