<svg width="24" height="24" viewBox="0 0 24 24" fill="none" xmlns="http://www.w3.org/2000/svg">
<g clip-path="url(#clip0_771_3824)">
<path d="M9.12997 22.0446C9.6583 22.0446 10.0866 21.6163 10.0866 21.088C10.0866 20.5596 9.6583 20.1313 9.12997 20.1313C8.60164 20.1313 8.17334 20.5596 8.17334 21.088C8.17334 21.6163 8.60164 22.0446 9.12997 22.0446Z" stroke="#42623B" stroke-width="2" stroke-linecap="round" stroke-linejoin="round"/>
<path d="M19.6529 22.0446C20.1813 22.0446 20.6096 21.6163 20.6096 21.088C20.6096 20.5596 20.1813 20.1313 19.6529 20.1313C19.1246 20.1313 18.6963 20.5596 18.6963 21.088C18.6963 21.6163 19.1246 22.0446 19.6529 22.0446Z" stroke="#42623B" stroke-width="2" stroke-linecap="round" stroke-linejoin="round"/>
<path d="M1.47705 1.95557H5.30358L7.86735 14.7649C7.95483 15.2053 8.19443 15.6009 8.54421 15.8825C8.89399 16.1641 9.33166 16.3136 9.78061 16.305H19.0791C19.528 16.3136 19.9657 16.1641 20.3155 15.8825C20.6653 15.6009 20.9049 15.2053 20.9923 14.7649L22.5229 6.73873H6.26021" stroke="#42623B" stroke-width="2" stroke-linecap="round" stroke-linejoin="round"/>
</g>
<defs>
<clipPath id="clip0_771_3824">
<rect width="24" height="24" fill="white"/>
</clipPath>
</defs>
</svg>
