<svg width="18" height="18" viewBox="0 0 18 18" fill="none" xmlns="http://www.w3.org/2000/svg">
<path d="M18 14.1342C17.6351 14.0134 17.1486 13.8926 17.1486 13.8926V13.7718C16.9054 13.7718 16.6622 13.8926 16.6622 13.8926C16.6622 13.7718 16.6622 13.651 16.6622 13.651C16.1757 13.651 15.8108 13.7718 15.8108 13.7718C15.8108 13.651 15.9324 13.4094 15.9324 13.4094C15.5675 13.2886 15.0811 13.651 15.0811 13.651C15.0811 13.5302 15.2027 13.2886 15.2027 13.2886C14.8378 13.2886 14.3513 13.4094 14.3513 13.4094C14.3513 13.2886 14.3513 13.1678 14.3513 13.1678C13.8649 13.1678 13.5 13.5302 13.5 13.5302C13.5 13.4094 13.5 13.2886 13.5 13.2886C13.1351 13.2886 12.7703 13.651 12.7703 13.651C12.7703 13.5302 12.7703 13.5302 12.7703 13.5302C12.527 13.5302 11.9189 13.8926 11.9189 13.8926C11.9189 13.7718 11.9189 13.651 11.9189 13.651C11.4324 13.7718 10.4594 14.1342 10.4594 14.1342C10.9459 13.8926 11.7973 13.5302 11.7973 13.5302C11.6757 13.4094 11.5541 13.2886 11.5541 13.2886C12.0405 13.2886 12.7703 13.047 12.7703 13.047C12.6487 12.9262 12.4054 12.6846 12.4054 12.6846C13.0135 12.6846 13.5 12.443 13.5 12.443C13.3784 12.3222 13.1351 12.2013 13.1351 12.2013C13.9865 12.2013 14.2297 11.7181 14.2297 11.7181C14.1081 11.5973 13.8649 11.4765 13.8649 11.4765C14.5946 11.4765 14.9595 10.9933 14.9595 10.9933C14.8378 10.8725 14.473 10.7517 14.473 10.7517C15.2027 10.6309 15.6892 10.2685 15.6892 10.2685C15.5676 10.1477 15.2027 10.0268 15.2027 10.0268C15.8108 9.90604 16.1757 9.42282 16.1757 9.42282C16.0541 9.30202 15.6892 9.30202 15.6892 9.30202C16.2973 9.06041 16.6622 8.57718 16.6622 8.57718C16.5405 8.57718 16.1757 8.45638 16.1757 8.45638C16.4189 8.21477 16.6622 7.97316 16.6622 7.97316L16.5405 7.85235C16.6621 7.73155 17.027 7.36913 17.027 7.36913C16.9054 7.36913 16.9054 7.24833 16.9054 7.24833C17.027 7.12752 17.8784 6.04027 17.8784 6.04027C17.2703 6.04027 16.2973 6.88591 16.2973 6.88591C16.2973 6.76511 16.1757 6.6443 16.1757 6.6443C15.9324 6.7651 15.4459 7.24833 15.4459 7.24833C15.4459 7.12752 15.3243 7.00671 15.3243 7.00671C14.8378 7.12752 14.3513 7.73154 14.3513 7.73154C14.3513 7.48993 14.2297 7.36913 14.2297 7.36913C13.8649 7.48993 13.6216 8.21477 13.6216 8.21477C13.6216 8.09396 13.5 7.85235 13.5 7.85235C13.1351 8.09396 12.8919 8.69799 12.8919 8.69799C12.8919 8.45638 12.7703 8.21477 12.7703 8.21477C12.2838 8.57718 12.2838 9.30202 12.2838 9.30202C12.2838 9.18121 12.1622 8.9396 12.1622 8.9396C11.7973 9.18121 11.7973 9.90604 11.7973 9.90604C11.7973 9.78524 11.5541 9.66443 11.5541 9.66443C11.1892 10.0268 11.1892 10.7517 11.1892 10.7517C11.0676 10.6309 11.0675 10.5101 11.0675 10.5101C10.9459 10.6309 10.8243 11.3557 10.8243 11.3557C10.8243 11.2349 10.7027 11.1141 10.7027 11.1141C10.5811 11.2349 10.0946 11.9597 9.85133 12.443C10.2162 11.8389 10.4594 11.2349 10.4594 11.2349C10.3378 11.2349 10.2162 11.2349 10.2162 11.2349C10.9459 10.6309 11.0675 9.66443 11.0675 9.66443C10.9459 9.66443 10.5811 9.78524 10.5811 9.78524C11.0676 9.0604 10.946 8.57718 10.946 8.57718C10.8243 8.57718 10.7027 8.69799 10.7027 8.69799C11.0676 8.09396 10.946 7.61074 10.946 7.61074C10.8243 7.61074 10.5811 7.73154 10.5811 7.73154C11.0676 7.36913 10.946 6.52349 10.946 6.52349C10.8243 6.6443 10.3378 6.7651 10.3378 6.7651C10.946 6.04027 10.8243 5.55705 10.8243 5.55705C10.5811 5.55705 10.3378 5.79866 10.2162 5.79866C10.7027 5.19463 10.5811 4.59061 10.5811 4.59061C10.4594 4.59061 10.2162 4.83222 10.2162 4.83222C10.4595 4.22819 10.3378 3.74497 10.3378 3.74497C10.2162 3.74497 9.97295 3.98658 9.85133 3.98658C10.2162 3.38255 9.97296 3.14094 9.97296 3.14094C9.85134 3.14094 9.60811 3.26175 9.60811 3.26175C9.85135 2.77853 9.72974 2.53692 9.72974 2.53692C9.60812 2.53692 9.48648 2.65772 9.48648 2.65772C9.6081 2.29531 9.48648 1.81208 9.48648 1.81208C9.36486 1.81208 9.24322 1.81208 9.24322 1.81208C9.24322 1.57047 9.24322 1.08725 9.24322 1.08725L9.12163 1.20805C9.24325 0.604027 9 0 9 0C9 0 8.75675 0.604027 8.87837 1.20805L8.75674 1.08725C8.75674 1.08725 8.63512 1.57047 8.75674 1.81208C8.75674 1.81208 8.63514 1.69128 8.51352 1.81208C8.51352 1.81208 8.3919 2.1745 8.51352 2.65772L8.27026 2.53692C8.27026 2.53692 8.14865 2.77853 8.39189 3.26175C8.39189 3.26175 8.14863 3.14094 8.027 3.14094C8.027 3.14094 7.90539 3.38255 8.14863 3.98658C8.14863 3.98658 7.78377 3.74497 7.66215 3.74497C7.66215 3.74497 7.54054 4.10739 7.78378 4.83222C7.78378 4.83222 7.54052 4.59061 7.41889 4.59061C7.41889 4.59061 7.2973 5.19463 7.78378 5.79866C7.78378 5.79866 7.41892 5.55705 7.17567 5.55705C7.17567 5.55705 7.05404 6.04027 7.66215 6.7651C7.66215 6.7651 7.17567 6.6443 7.05404 6.52349C7.05404 6.52349 6.93241 7.36913 7.41889 7.73154C7.41889 7.73154 7.17567 7.61074 7.05404 7.61074C7.05404 7.61074 6.93244 8.21477 7.2973 8.69799C7.2973 8.69799 7.17567 8.57718 7.05404 8.57718C7.05404 8.57718 6.93241 9.0604 7.41889 9.78524C7.41889 9.78524 7.05404 9.66443 6.93242 9.66443C6.93242 9.66443 7.05405 10.6309 7.78378 11.2349C7.78378 11.2349 7.66215 11.2349 7.54052 11.2349C7.54052 11.2349 7.78377 11.8389 8.14863 12.443C7.90539 11.9597 7.41892 11.2349 7.2973 11.1141C7.2973 11.1141 7.17567 11.2349 7.17567 11.3557C7.17567 11.3557 7.05404 10.6309 6.93242 10.5101C6.93242 10.5101 6.93241 10.6309 6.81079 10.7517C6.81079 10.7517 6.8108 10.0268 6.44594 9.66443C6.44594 9.66443 6.20268 9.78524 6.20268 9.90604C6.20268 9.90604 6.20269 9.18121 5.83783 8.9396C5.83783 8.9396 5.7162 9.18121 5.7162 9.30202C5.7162 9.30202 5.59458 8.57718 5.22972 8.21477C5.22972 8.21477 4.98647 8.45638 5.10809 8.69799C5.10809 8.69799 4.86485 8.09396 4.49998 7.85235C4.49998 7.85235 4.37835 8.09396 4.37835 8.21477C4.37835 8.21477 4.13511 7.48993 3.77024 7.36913C3.77024 7.36913 3.64865 7.48993 3.64865 7.73154C3.64865 7.73154 3.16214 7.12752 2.67566 7.00671C2.67566 7.00671 2.55403 7.00672 2.55403 7.24833C2.55403 7.24833 2.06757 6.88591 1.82433 6.6443C1.82433 6.6443 1.7027 6.6443 1.7027 6.88591C1.7027 6.88591 0.729701 6.04027 0.121592 6.04027C0.121592 6.04027 1.09459 7.12752 1.09459 7.24833H0.972959C0.972959 7.24833 1.21619 7.61074 1.45944 7.73154C1.45944 7.73154 1.33781 7.73155 1.33781 7.85235C1.33781 7.85235 1.58108 8.09396 1.82433 8.33557C1.82433 8.33557 1.45943 8.33557 1.33781 8.45638C1.33781 8.45638 1.7027 9.0604 2.31081 9.18121C2.31081 9.18121 2.06757 9.30202 1.82433 9.30202C1.82433 9.30202 2.3108 9.78524 2.79728 9.90604C2.79728 9.90604 2.43243 10.0268 2.31081 10.1477C2.31081 10.1477 2.67567 10.6309 3.52702 10.6309C3.52702 10.6309 3.28379 10.7517 3.04054 10.8725C3.04054 10.8725 3.4054 11.3557 4.13513 11.3557C4.13513 11.3557 3.89187 11.4765 3.77024 11.5973C3.77024 11.5973 4.01352 12.0805 4.86487 12.0805C4.86487 12.0805 4.6216 12.2013 4.49998 12.3222C4.49998 12.3222 4.98646 12.5638 5.59457 12.5638C5.59457 12.5638 5.22972 12.8054 5.22972 12.9262C5.22972 12.9262 5.83783 13.1678 6.44594 13.1678C6.44594 13.1678 6.3243 13.2886 6.20268 13.4094C6.20268 13.4094 7.05404 13.7718 7.54052 14.0134C7.54052 14.0134 6.56757 13.651 6.08109 13.5302C6.08109 13.5302 6.08109 13.651 6.08109 13.7718C6.08109 13.7718 5.47296 13.4094 5.22972 13.4094V13.5302C5.22972 13.5302 4.86485 13.1678 4.49998 13.2886C4.49998 13.2886 4.49998 13.4094 4.49998 13.5302C4.49998 13.5302 4.13514 13.1678 3.64865 13.1678V13.4094C3.64865 13.4094 3.16215 13.2886 2.79728 13.2886C2.79728 13.2886 2.91891 13.5302 2.91891 13.651C2.91891 13.651 2.43241 13.4094 2.06755 13.4094C2.06755 13.4094 2.18918 13.651 2.18918 13.7718C2.18918 13.7718 1.70267 13.5302 1.33781 13.651C1.33781 13.651 1.33781 13.7718 1.33781 13.8926C1.33781 13.8926 1.09457 13.8926 0.85133 13.7718V13.8926C0.85133 13.8926 0.364865 13.8926 0 14.1342C0 14.1342 0.486487 14.4966 1.21622 14.4966C1.21622 14.4966 1.09459 14.6175 1.09459 14.7383C1.09459 14.7383 1.45946 14.8591 1.82433 14.7383C1.82433 14.7383 1.82432 14.8591 1.7027 14.9799C1.7027 14.9799 1.94593 15.1007 2.18918 14.9799C2.18918 14.9799 2.06755 15.1007 2.06755 15.2215C2.06755 15.2215 2.43243 15.3423 2.91891 15.2215C2.91891 15.2215 2.79728 15.4631 2.67566 15.5839C2.67566 15.5839 3.28376 15.8255 3.89187 15.3423C3.89187 15.3423 3.77027 15.7047 3.64865 15.8255C3.64865 15.8255 4.13512 15.8255 4.49998 15.4631C4.49998 15.4631 4.37835 15.7047 4.37835 15.8255C4.37835 15.8255 4.74323 15.8255 5.22972 15.4631C5.22972 15.4631 5.10809 15.7047 5.10809 15.8255C5.10809 15.8255 5.71621 15.8255 5.95946 15.4631C5.95946 15.4631 5.95946 15.5839 5.95946 15.7047C5.95946 15.7047 6.44592 15.5839 6.81079 15.3423V15.4631C6.81079 15.4631 7.41891 15.2215 7.66215 15.1007V15.2215L8.027 15.1007C8.027 15.1007 7.66215 15.2215 7.54052 15.3423L7.66215 15.4631C7.66215 15.4631 7.29728 15.4631 6.93242 15.8255C6.93242 15.8255 7.05405 15.9463 7.17567 15.8255C7.17567 15.8255 6.56756 16.0671 6.44594 16.3087C6.44594 16.3087 6.56757 16.4295 6.68919 16.3087C6.68919 16.3087 6.08107 16.7919 5.83783 17.2752C5.83783 17.2752 5.95946 17.396 6.08109 17.2752C6.08109 17.2752 5.83783 17.7584 5.83783 18C5.83783 18 6.44593 17.6376 6.93242 17.1544V17.2752C6.93242 17.2752 7.4189 16.9128 7.54052 16.5503C7.54052 16.5503 7.54052 16.6711 7.54052 16.9128C7.54052 16.9128 8.02701 16.5503 8.14863 16.0671C8.14863 16.0671 8.14863 16.1879 8.14863 16.3087C8.14863 16.3087 8.51349 15.9463 8.63511 15.5839C8.63511 15.5839 8.75674 15.7047 8.75674 15.8255C8.75674 15.8255 8.87837 15.2215 8.87837 14.9799C8.87837 15.1007 9 15.8255 9 15.8255C9.12162 15.8255 9.12163 15.5839 9.12163 15.5839C9.12163 15.9463 9.60811 16.3087 9.60811 16.3087C9.60811 16.1879 9.60811 16.0671 9.60811 16.0671C9.85135 16.5503 10.2162 16.9128 10.2162 16.9128C10.2162 16.7919 10.2162 16.5503 10.2162 16.5503C10.3378 16.9128 10.8243 17.2752 10.8243 17.2752C10.8243 17.1544 10.8243 17.1544 10.8243 17.1544C11.1892 17.6376 11.9189 18 11.9189 18C11.9189 17.7584 11.6757 17.2752 11.6757 17.2752C11.7973 17.2752 11.9189 17.2752 11.9189 17.2752C11.6757 16.7919 11.0675 16.3087 11.0675 16.3087C11.1892 16.3087 11.3108 16.3087 11.3108 16.3087C11.1892 16.0671 10.5811 15.8255 10.5811 15.8255C10.7027 15.8255 10.8243 15.8255 10.8243 15.8255C10.4595 15.4631 10.0946 15.4631 10.0946 15.4631C10.2162 15.4631 10.2162 15.3423 10.2162 15.3423C10.0946 15.2215 9.72974 15.1007 9.72974 15.1007L10.0946 15.2215V15.1007C10.3378 15.2215 10.946 15.4631 10.946 15.4631C10.946 15.3423 10.946 15.3423 10.946 15.3423C11.1892 15.5839 11.7973 15.7047 11.7973 15.7047C11.7973 15.5839 11.7973 15.4631 11.7973 15.4631C12.0405 15.8255 12.6487 15.8255 12.6487 15.8255C12.6487 15.7047 12.527 15.4631 12.527 15.4631C13.0135 15.8255 13.3784 15.8255 13.3784 15.8255C13.3784 15.7047 13.2568 15.4631 13.2568 15.4631C13.6216 15.8255 14.1081 15.8255 14.1081 15.8255C13.9865 15.5839 13.8649 15.3423 13.8649 15.3423C14.473 15.8255 15.0811 15.5839 15.0811 15.5839C15.0811 15.4631 14.8378 15.2215 14.8378 15.2215C15.3243 15.3423 15.6892 15.2215 15.6892 15.2215C15.5676 15.1007 15.5676 14.9799 15.5676 14.9799C15.8108 15.1007 16.054 14.9799 16.054 14.9799L15.9324 14.7383C16.2973 14.8591 16.6622 14.7383 16.6622 14.7383C16.5405 14.6175 16.5405 14.4966 16.5405 14.4966C17.5135 14.3758 18 14.1342 18 14.1342Z" fill="#9BD28F"/>
</svg>
