<svg width="14" height="10" viewBox="0 0 14 10" fill="none" xmlns="http://www.w3.org/2000/svg">
<path d="M13.5456 0.00340447C13.5639 -0.079578 12.2175 1.37907 10.4633 2.67912C8.81007 4.18203 6.74908 5.52634 7.68588 9.93179C7.73548 9.93917 7.78324 9.94101 7.83283 9.94839C9.51542 8.5967 10.827 6.70839 11.4735 4.40332C11.1025 6.52951 10.1271 8.45471 8.72556 10C12.561 9.99819 13.5419 6.78584 13.8156 4.45496C14.058 1.73497 13.4758 0.0550379 13.5456 0.00340447Z" fill="#9BD28F"/>
<path d="M3.53638 2.67911C1.78215 1.37905 0.43572 -0.0795986 0.454089 0.00338398C0.523891 0.0550176 -0.060241 1.73495 0.185897 4.45493C0.459589 6.78582 1.44048 9.99817 5.27589 10C3.87435 8.4547 2.89713 6.5295 2.52792 4.4033C3.17267 6.70653 4.4842 8.59669 6.16678 9.94839C6.21638 9.94285 6.26414 9.93917 6.31373 9.93179C7.25055 5.52634 5.18773 4.18202 3.53638 2.67911Z" fill="#9BD28F"/>
</svg>
