<svg width="16" height="16" viewBox="0 0 16 16" fill="none" xmlns="http://www.w3.org/2000/svg">
<path d="M8.2 8.24209L4.86667 7.13342C4.62849 7.05516 4.37151 7.05516 4.13333 7.13342L0.8 8.24409C0.567407 8.32088 0.364924 8.469 0.221312 8.66743C0.0777009 8.86585 0.000263552 9.10448 1.35842e-07 9.34942V13.7221C-0.000118253 13.9673 0.0771499 14.2063 0.220796 14.405C0.364441 14.6037 0.567136 14.752 0.8 14.8288L4.13333 15.9401C4.37135 16.0193 4.62865 16.0193 4.86667 15.9401L8.2 14.8294C8.43286 14.7524 8.63552 14.604 8.77915 14.4052C8.92277 14.2064 9.00006 13.9673 9 13.7221V9.34942C8.99509 9.10539 8.91589 8.86866 8.77295 8.67081C8.63001 8.47296 8.43014 8.3234 8.2 8.24209ZM4.44667 8.08009C4.46384 8.07425 4.48186 8.07132 4.5 8.07142C4.51786 8.07137 4.53563 8.07407 4.55267 8.07942L6.44867 8.71142C6.51487 8.73365 6.56229 8.79958 6.56229 8.86942C6.56229 8.93926 6.51487 9.00519 6.44867 9.02742C5.77333 9.25609 4.582 9.66075 4.31533 9.75275C4.28056 9.76474 4.24277 9.76474 4.208 9.75275L2.29 9.11342C2.22331 9.0915 2.17538 9.02529 2.17538 8.95509C2.17538 8.88489 2.22331 8.81868 2.29 8.79675L4.44667 8.08009ZM7.886 13.8801L5.05267 14.8248C5.00258 14.8414 4.94542 14.8327 4.90258 14.8019C4.85975 14.771 4.83337 14.7195 4.83333 14.6668V10.7381C4.83336 10.7031 4.84438 10.6691 4.86484 10.6407C4.8853 10.6123 4.91416 10.5911 4.94733 10.5801L7.78067 9.63542C7.83085 9.61901 7.88796 9.62794 7.93074 9.65889C7.97353 9.68984 7.99988 9.74129 8 9.79409V13.7221C7.99997 13.7571 7.98895 13.7911 7.96849 13.8195C7.94803 13.8478 7.91917 13.869 7.886 13.8801ZM12.6113 6.62675C12.8217 6.55703 13.0048 6.42273 13.1344 6.24294C13.264 6.06316 13.3336 5.84706 13.3333 5.62542V1.98209C13.3288 1.7618 13.2573 1.54812 13.1283 1.36948C12.9993 1.19084 12.819 1.05571 12.6113 0.982088L9.83267 0.0534211C9.61615 -0.017807 9.38251 -0.017807 9.166 0.0534211L6.38867 0.980754C6.17822 1.05039 5.99512 1.18467 5.86548 1.36448C5.73583 1.54428 5.66626 1.76042 5.66667 1.98209V5.62542C5.66684 5.84679 5.73666 6.06249 5.86625 6.24197C5.99583 6.42144 6.1786 6.5556 6.38867 6.62542L9.16667 7.55209C9.38318 7.62332 9.61682 7.62332 9.83333 7.55209L12.6113 6.62675ZM10.052 6.41675C10.027 6.42497 10.0004 6.42714 9.9744 6.4231C9.9484 6.41905 9.92372 6.40891 9.90239 6.3935C9.88106 6.37809 9.86368 6.35784 9.85168 6.33442C9.83967 6.311 9.83339 6.28507 9.83333 6.25875V3.22809C9.83336 3.19312 9.84438 3.15905 9.86484 3.1307C9.8853 3.10234 9.91416 3.08114 9.94733 3.07009L12.1087 2.35009C12.1338 2.34154 12.1606 2.3392 12.1869 2.34327C12.2131 2.34733 12.238 2.35768 12.2593 2.37342C12.2804 2.38935 12.2974 2.41003 12.309 2.43378C12.3206 2.45753 12.3264 2.48367 12.326 2.51009L12.2947 5.55942C12.2944 5.59418 12.2831 5.62796 12.2626 5.65596C12.242 5.68397 12.2131 5.70477 12.18 5.71542L10.052 6.41675ZM9.51867 1.00275L10.7853 1.42475C10.8184 1.43587 10.8472 1.4571 10.8676 1.48545C10.888 1.5138 10.899 1.54784 10.899 1.58275C10.899 1.61767 10.888 1.65171 10.8676 1.68006C10.8472 1.70841 10.8184 1.72964 10.7853 1.74075C10.2813 1.91209 9.52467 2.17075 9.31867 2.24275C9.28366 2.25474 9.24567 2.25474 9.21067 2.24275L7.96733 1.82809C7.93423 1.81697 7.90545 1.79574 7.88507 1.76739C7.86468 1.73904 7.85371 1.70501 7.85371 1.67009C7.85371 1.63517 7.86468 1.60113 7.88507 1.57278C7.90545 1.54443 7.93423 1.5232 7.96733 1.51209L9.51867 1.00275ZM15.354 8.45609L13.1333 7.71475C12.9398 7.65077 12.7308 7.65077 12.5373 7.71475L10.3147 8.45609C10.1266 8.5187 9.96305 8.63896 9.84721 8.7998C9.73137 8.96064 9.66913 9.15388 9.66933 9.35209V12.2668C9.66907 12.4651 9.73137 12.6584 9.84735 12.8193C9.96333 12.9802 10.1271 13.1003 10.3153 13.1628L12.5333 13.9041C12.727 13.9685 12.9363 13.9685 13.13 13.9041L15.352 13.1641C15.5407 13.1018 15.705 12.9815 15.8213 12.8204C15.9377 12.6592 16.0002 12.4655 16 12.2668V9.35209C15.9961 9.1548 15.9322 8.96338 15.8168 8.80332C15.7014 8.64326 15.5399 8.52214 15.354 8.45609ZM12.8153 8.66675L13.452 8.87875C13.5182 8.90098 13.5656 8.96692 13.5656 9.03675C13.5656 9.10659 13.5182 9.17253 13.452 9.19475C13.148 9.29942 12.7853 9.42542 12.6487 9.47409C12.6135 9.48644 12.5752 9.48644 12.54 9.47409L11.946 9.27409C11.8798 9.25186 11.8324 9.18593 11.8324 9.11609C11.8324 9.04625 11.8798 8.98032 11.946 8.95809L12.8153 8.66675ZM13.3867 12.7774C13.3365 12.7944 13.2791 12.7858 13.2361 12.7549C13.1931 12.724 13.1666 12.6724 13.1667 12.6194V10.3368L14.7887 9.79542C14.8384 9.77914 14.895 9.78775 14.9377 9.8181C14.9803 9.84845 15.007 9.89907 15.008 9.95142L15.036 12.0934C15.0367 12.1287 15.026 12.1632 15.0056 12.192C14.9852 12.2208 14.9562 12.2423 14.9227 12.2534L13.3867 12.7774Z" fill="#9BD28F"/>
</svg>
