<svg width="55" height="170" viewBox="0 0 55 170" fill="none" xmlns="http://www.w3.org/2000/svg">
<path d="M9.61585 166.325C6.27849 160.074 1.27628 149.765 0.0196906 137.287C1.63309 138.709 5.04486 142.003 7.27998 143.684L7.09501 143.233C7.40587 143.363 7.90171 143.944 8.21256 144.074C8.21256 144.074 -1.36279 125.13 0.165185 101.862C1.03099 103.345 3.07348 106.44 6.05619 108.06L6.18206 107.739C6.49292 107.869 6.80376 107.999 6.98875 108.45C6.98875 108.45 -1.39461 87.3894 3.93043 64.5886C4.47773 67.8057 5.32823 73.0172 6.37902 74.9506C6.37902 74.9506 6.13492 73.7279 6.14258 71.8634C6.57166 73.537 6.81574 74.7596 7.31158 75.3404C7.31158 75.3404 4.90895 53.7917 10.0031 41.7268C10.1804 44.0422 10.9127 47.7101 12.3334 50.5452C12.3334 50.5452 11.9635 49.6435 11.8452 48.0999C12.2152 49.0017 12.4593 50.2243 12.9551 50.8051C12.9551 50.8051 10.5066 40.4432 17.792 25.5591C21.9973 17.6051 24.1011 5.78437 24.5608 0C25.4704 5.98325 27.8522 17.4379 31.8036 25.8133C39.84 40.3787 37.3663 51.2977 37.3663 51.2977C38.0548 50.4649 38.3065 49.8231 38.3733 48.7304C38.3656 50.5949 37.988 51.5576 37.988 51.5576C39.7426 48.9293 39.8838 44.8794 40.0173 42.694C45.6336 55.1272 44.9199 77.2409 44.9199 77.2409C45.4826 76.729 45.7343 76.0872 45.8011 74.9945C45.9193 76.5381 45.8525 77.6308 45.8525 77.6308C47.2295 75.9652 47.6892 70.1808 47.8895 66.9027C53.7116 89.8809 47.1508 110.297 47.1508 110.297L48.461 109.724L48.0833 110.687C50.7037 109.541 52.5842 106.592 53.3395 104.667C54.9868 128.141 47.0052 145.722 47.0052 145.722C47.442 145.531 48.0046 145.019 48.5672 144.508L47.9378 146.112C50.0624 144.386 53.3122 141.635 55 140.1C53.947 153.854 48.8606 164.054 45.3514 169.311L9.61585 166.325Z" fill="white"/>
</svg>
