<svg width="32" height="45" viewBox="0 0 32 45" fill="none" xmlns="http://www.w3.org/2000/svg">
<path d="M9.60718 13.0282C9.59876 13.0365 9.57289 13.0365 9.56386 13.0536C9.52054 13.0874 9.48625 13.1046 9.42608 13.1218C9.40021 13.1218 9.39179 13.1472 9.38277 13.1472C9.35689 13.1472 9.34847 13.139 9.33102 13.139C9.3226 13.1307 9.30515 13.139 9.29673 13.139L3.73328 11.3216C4.19895 12.2131 5.00097 13.3344 6.3378 14.3279C6.34623 14.3362 6.34623 14.3617 6.36367 14.3705C6.3721 14.3788 6.39797 14.3788 6.40699 14.396C6.41542 14.4215 6.40699 14.4387 6.41542 14.4641C6.42384 14.4979 6.44129 14.5151 6.44129 14.566C6.44129 14.5998 6.43286 14.6341 6.40699 14.6679C6.39857 14.6762 6.40699 14.7106 6.39857 14.7189C6.39015 14.7272 6.36427 14.7272 6.36427 14.7443C6.3384 14.7526 6.3384 14.7781 6.32998 14.787C5.04485 15.6447 4.25129 16.5962 3.77721 17.3769L10.0133 15.3983C10.1601 15.3556 10.3063 15.4238 10.358 15.5511C10.4098 15.6868 10.358 15.8396 10.2202 15.9077C9.23715 16.4172 7.89127 17.2921 7.13256 18.6256C6.83053 19.1522 6.66688 19.7043 6.60671 20.2564C7.21919 20.1374 7.79677 19.9934 8.34901 19.8062C11.5059 18.8128 13.2307 17.0884 14.1195 15.8065C14.2055 15.6874 14.3782 15.6536 14.4991 15.73C14.62 15.8065 14.6627 15.9593 14.6026 16.0949C14.3096 16.6387 14.1543 17.1056 14.111 17.5895C13.9215 19.3305 15.129 20.7061 15.9912 21.4536C16.8449 20.6894 18.0525 19.305 17.8713 17.5977C17.828 17.0883 17.6559 16.6043 17.3714 16.1031C17.2937 15.9675 17.3371 15.8058 17.4748 15.7294C17.5958 15.6529 17.7678 15.6867 17.8455 15.8058C18.7509 17.0794 20.4758 18.8121 23.6159 19.8055C24.1941 19.9921 24.7717 20.1367 25.3758 20.2557C25.324 19.6865 25.1429 19.1433 24.8499 18.6249C24.0906 17.2915 22.7454 16.4082 21.7533 15.907C21.6324 15.8389 21.5722 15.6861 21.6324 15.5504C21.6841 15.4148 21.8309 15.3549 21.9687 15.3976L28.2223 17.3762C27.7392 16.6031 26.9546 15.6434 25.6695 14.7863C25.6437 14.778 25.6437 14.7525 25.6352 14.7436C25.6268 14.7353 25.6094 14.7353 25.6009 14.7182C25.5925 14.7099 25.5925 14.6755 25.5751 14.6672C25.5667 14.6335 25.5492 14.5991 25.5492 14.5653C25.5492 14.5227 25.5576 14.4972 25.5751 14.4634C25.5835 14.438 25.5751 14.4208 25.5835 14.3953C25.5919 14.387 25.6178 14.387 25.6268 14.3698C25.6352 14.3616 25.6268 14.3361 25.6527 14.3272C26.9811 13.3338 27.7916 12.2124 28.2572 11.3209L22.7112 13.1383C22.7027 13.1383 22.6853 13.13 22.6679 13.1383C22.6594 13.1383 22.6336 13.1466 22.6245 13.1466C22.5987 13.1466 22.5902 13.1211 22.5812 13.1211C22.5295 13.1128 22.4777 13.0873 22.4434 13.053C22.435 13.0447 22.4091 13.0447 22.3917 13.0275L22.3917 12.9848C22.3833 12.9765 22.3658 12.9594 22.3574 12.9511C22.349 12.9256 22.3658 12.9084 22.3574 12.8829C22.3574 12.8492 22.3574 12.8148 22.3658 12.781C22.3742 12.7473 22.4001 12.7129 22.4176 12.6963C22.426 12.6709 22.426 12.6537 22.4519 12.6454C23.5475 11.864 24.3579 10.9807 24.8585 10.0129C25.1605 9.39269 25.3416 8.75587 25.3843 8.11911C24.7375 8.26365 24.1768 8.41647 23.6503 8.61137C21.6925 9.3163 20.0795 10.4033 18.8028 11.8641C19.2083 12.3736 19.7341 12.8238 20.4068 13.2396C20.5445 13.316 20.5879 13.486 20.5102 13.6134C20.4585 13.6981 20.3634 13.7491 20.26 13.7491C20.2166 13.7491 20.1565 13.7408 20.1132 13.7064C16.8095 11.7024 16.8528 8.92535 16.9389 3.37118C16.9648 2.3434 16.9732 1.23094 16.9732 2.96769e-06L15.0239 2.62686e-06C15.0239 1.23157 15.0323 2.36058 15.0498 3.37118C15.1358 8.92535 15.1707 11.7025 11.8845 13.7064C11.7467 13.7828 11.574 13.7491 11.4964 13.6217C11.4188 13.486 11.4621 13.3243 11.5824 13.2479C12.2641 12.8321 12.7899 12.3819 13.1955 11.8724C11.9447 10.4205 10.3316 9.31634 8.36552 8.6368C7.83065 8.42473 7.26991 8.2719 6.62322 8.12735C6.67496 8.79852 6.85606 9.41815 7.15809 10.0212C7.64964 10.9891 8.46909 11.8723 9.55561 12.6536C9.58148 12.6619 9.58148 12.6874 9.59892 12.7046C9.62479 12.7301 9.63322 12.7555 9.64224 12.7893C9.65066 12.8231 9.65066 12.8574 9.65066 12.8912C9.65066 12.9167 9.65909 12.9338 9.65909 12.9593C9.65066 12.9676 9.63322 12.9848 9.6248 12.9931C9.60735 12.9943 9.62479 13.0108 9.60735 13.028L9.60718 13.0282Z" fill="white"/>
<path d="M28.0837 16.2052C28.5319 16.7573 28.834 17.284 29.0325 17.6998C29.0843 17.8017 29.0668 17.9208 28.9982 18.0055C28.9206 18.0819 28.8087 18.1157 28.6962 18.0819L23.7627 16.511C24.3577 16.9949 24.9269 17.598 25.3408 18.3201C25.7289 19.0251 25.9359 19.7555 25.9533 20.5452C25.9533 20.6299 25.919 20.7063 25.8498 20.7661C25.7806 20.8171 25.703 20.8425 25.6254 20.8342C24.8661 20.6986 24.1508 20.5286 23.4432 20.3076C21.0716 19.56 19.467 18.4138 18.4062 17.3184C18.4062 17.3866 18.4147 17.4541 18.4321 17.5139C18.6475 19.5944 17.1127 21.2163 16.1723 21.9976C16.1205 22.0402 16.0604 22.0657 15.9912 22.0657C15.922 22.0657 15.8534 22.0402 15.8101 22.0148C14.8697 21.2334 13.3259 19.6198 13.5503 17.5222C13.5587 17.4457 13.5587 17.3776 13.5761 17.3101C12.5154 18.3971 10.9025 19.5606 8.52174 20.3082C7.84007 20.5292 7.13313 20.7075 6.36542 20.8348C6.28781 20.8431 6.20178 20.8265 6.14101 20.7667C6.07182 20.7158 6.03753 20.6311 6.03753 20.5546C6.03753 19.7905 6.23608 19.0429 6.64159 18.3213C7.05552 17.6081 7.61626 16.9967 8.21123 16.5121L3.30362 18.0831C3.19171 18.1168 3.0792 18.0831 3.00159 18.0066C2.92398 17.9219 2.91556 17.7946 2.95827 17.701C3.15682 17.2851 3.4757 16.7668 3.90708 16.2236C1.31935 17.939 -3.56422e-06 20.385 -4.11505e-06 23.5354C-5.03564e-06 28.8005 8.47847 38.9915 13.8175 44.1719C14.9558 45.276 17.0261 45.276 18.1734 44.1719C23.5209 38.9915 32 28.8006 32 23.5354C32 20.3833 30.6714 17.9374 28.0837 16.2052ZM2.44052 24.0009C2.06991 24.0009 1.76787 23.7036 1.76787 23.3387C1.76787 22.9737 2.44052 21.7932 2.44052 21.7932C2.44052 21.7932 3.11316 22.9738 3.11316 23.3387C3.11316 23.7035 2.81174 24.0009 2.44052 24.0009ZM4.20869 28.2981C3.86395 28.4083 3.48431 28.23 3.3718 27.8905C3.25086 27.5339 3.50957 26.2342 3.50957 26.2342C3.50957 26.2342 4.51854 27.1174 4.63947 27.4569C4.74355 27.8058 4.56247 28.1707 4.20869 28.2981ZM13.0493 22.7439C13.0493 22.7439 13.7219 23.9245 13.7219 24.2894C13.7219 24.6542 13.4199 24.9517 13.0493 24.9517C12.6786 24.9517 12.3766 24.6543 12.3766 24.2894C12.3766 23.9245 13.0493 22.7439 13.0493 22.7439ZM13.0493 26.2005C13.0493 26.2005 13.7219 27.3722 13.7219 27.7459C13.7219 28.1108 13.4199 28.4082 13.0493 28.4082C12.6786 28.4082 12.3766 28.1108 12.3766 27.7459C12.3766 27.3727 13.0493 26.2005 13.0493 26.2005ZM8.01228 22.863C8.01228 22.863 8.61634 23.9073 8.61634 24.2385C8.61634 24.5613 8.3492 24.8243 8.01228 24.8243C7.68438 24.8243 7.41724 24.5613 7.41724 24.2385C7.41724 23.9073 8.01228 22.863 8.01228 22.863ZM7.41724 27.6868C7.41724 27.3639 8.01228 26.3196 8.01228 26.3196C8.01228 26.3196 8.61634 27.3639 8.61634 27.6868C8.61634 28.0179 8.3492 28.2815 8.01228 28.2815C7.68438 28.2809 7.41724 28.0179 7.41724 27.6868ZM8.54713 32.7481C8.23669 32.7481 7.97798 32.4934 7.97798 32.196C7.97798 31.8903 8.54713 30.9052 8.54713 30.9052C8.54713 30.9052 9.10787 31.882 9.10787 32.196C9.10787 32.4934 8.84916 32.7481 8.54713 32.7481ZM12.0836 36.9859C11.7732 36.9859 11.5229 36.7312 11.5229 36.4339C11.5229 36.1365 12.0836 35.1685 12.0836 35.1685C12.0836 35.1685 12.6359 36.1365 12.6359 36.4339C12.6353 36.7312 12.3851 36.9859 12.0836 36.9859ZM12.4892 32.0775C12.4892 31.7718 13.0499 30.7867 13.0499 30.7867C13.0499 30.7867 13.6106 31.7635 13.6106 32.0775C13.6106 32.3749 13.3603 32.6296 13.0499 32.6296C12.7304 32.6207 12.4892 32.3743 12.4892 32.0775ZM13.1877 41.4021C12.8857 41.3512 12.6703 41.071 12.722 40.7736C12.7653 40.4763 13.4723 39.593 13.4723 39.593C13.4723 39.593 13.8778 40.6374 13.8345 40.9348C13.7827 41.2404 13.4897 41.4442 13.1877 41.4021ZM15.9992 37.2069C15.6196 37.2069 15.3175 36.9095 15.3175 36.5446C15.3175 36.1797 15.9992 34.9992 15.9992 34.9992C15.9992 34.9992 16.6718 36.1798 16.6718 36.5446C16.6718 36.9095 16.3704 37.2069 15.9992 37.2069ZM16.1117 31.1599C15.8013 31.1599 15.551 30.9051 15.551 30.6078C15.551 30.3021 16.1117 29.3342 16.1117 29.3342C16.1117 29.3342 16.6724 30.3021 16.6724 30.6078C16.6718 30.9051 16.4222 31.1599 16.1117 31.1599ZM18.1038 41.3932C17.8018 41.4613 17.4998 41.283 17.4312 40.9856C17.3536 40.6883 17.6815 39.6101 17.6815 39.6101C17.6815 39.6101 18.4576 40.4252 18.5352 40.7226C18.5954 41.0194 18.4059 41.3257 18.1038 41.3932ZM18.9582 28.3063C18.6134 28.3063 18.3457 28.0433 18.3457 27.7032C18.3457 27.3721 18.9582 26.3022 18.9582 26.3022C18.9582 26.3022 19.5707 27.3721 19.5707 27.7032C19.5701 28.0433 19.2855 28.3063 18.9582 28.3063ZM18.9582 24.8503C18.6134 24.8503 18.3457 24.5873 18.3457 24.2473C18.3457 23.9161 18.9582 22.8463 18.9582 22.8463C18.9582 22.8463 19.5707 23.9161 19.5707 24.2473C19.5701 24.5784 19.2855 24.8503 18.9582 24.8503ZM19.7169 32.0431C19.7169 31.7457 20.2692 30.786 20.2692 30.786C20.2692 30.786 20.8299 31.7457 20.8299 32.0431C20.8299 32.3405 20.5712 32.5869 20.2692 32.5869C19.9587 32.578 19.7169 32.3404 19.7169 32.0431ZM20.5279 37.0879C20.1916 37.0879 19.9154 36.816 19.9154 36.4848C19.9154 36.1454 20.5279 35.0749 20.5279 35.0749C20.5279 35.0749 21.1404 36.1448 21.1404 36.4848C21.1488 36.8077 20.8642 37.0879 20.5279 37.0879ZM23.4862 28.2643C23.1583 28.2643 22.8912 28.0095 22.8912 27.695C22.8912 27.3721 23.4862 26.3361 23.4862 26.3361C23.4862 26.3361 24.0812 27.3721 24.0812 27.695C24.0812 28.0095 23.8141 28.2643 23.4862 28.2643ZM23.4862 24.8161C23.1583 24.8161 22.8912 24.553 22.8912 24.2302C22.8912 23.9073 23.4862 22.8884 23.4862 22.8884C23.4862 22.8884 24.0812 23.9162 24.0812 24.2302C24.0812 24.5447 23.8141 24.8161 23.4862 24.8161ZM25.0734 32.5698C24.7804 32.6379 24.4952 32.4341 24.4266 32.1539C24.3749 31.8565 24.7196 30.8122 24.7196 30.8122C24.7196 30.8122 25.4615 31.6528 25.5132 31.9329C25.5649 32.2303 25.3754 32.5105 25.0734 32.5698ZM28.5575 27.8058C28.4366 28.1032 28.1003 28.2389 27.8073 28.1115C27.5053 27.9924 27.3675 27.6613 27.4968 27.3639C27.6178 27.0754 28.5491 26.3705 28.5491 26.3705C28.5491 26.3705 28.6785 27.5257 28.5575 27.8058ZM29.5581 24.7486C29.2476 24.7486 28.9974 24.5021 28.9974 24.2048C28.9974 23.8991 29.5581 22.9394 29.5581 22.9394C29.5581 22.9394 30.1104 23.8991 30.1104 24.2048C30.1104 24.5021 29.8601 24.7486 29.5581 24.7486Z" fill="white"/>
</svg>
