<svg width="47" height="47" viewBox="0 0 47 47" fill="none" xmlns="http://www.w3.org/2000/svg">
<path d="M47 36.9061C46.0473 36.5906 44.777 36.2752 44.777 36.2752L44.777 35.9597C44.1418 35.9597 43.5067 36.2752 43.5067 36.2752C43.5067 35.9597 43.5067 35.6443 43.5067 35.6443C42.2365 35.6443 41.2838 35.9597 41.2838 35.9597C41.2838 35.6443 41.6013 35.0134 41.6013 35.0134C40.6486 34.698 39.3784 35.6443 39.3784 35.6443C39.3784 35.3289 39.696 34.698 39.696 34.698C38.7433 34.698 37.473 35.0134 37.473 35.0134C37.473 34.698 37.473 34.3826 37.473 34.3826C36.2027 34.3826 35.25 35.3289 35.25 35.3289C35.25 35.0134 35.25 34.698 35.25 34.698C34.2972 34.698 33.3446 35.6443 33.3446 35.6443C33.3446 35.3289 33.3446 35.3289 33.3446 35.3289C32.7095 35.3289 31.1216 36.2752 31.1216 36.2752C31.1216 35.9597 31.1216 35.6443 31.1216 35.6443C29.8513 35.9597 27.3108 36.9061 27.3108 36.9061C28.581 36.2752 30.804 35.3289 30.804 35.3289C30.4865 35.0134 30.1689 34.698 30.1689 34.698C31.4392 34.698 33.3446 34.0671 33.3446 34.0671C33.0271 33.7517 32.3919 33.1208 32.3919 33.1208C33.9797 33.1208 35.25 32.4899 35.25 32.4899C34.9324 32.1745 34.2973 31.8591 34.2973 31.8591C36.5203 31.8591 37.1554 30.5973 37.1554 30.5973C36.8378 30.2819 36.2027 29.9665 36.2027 29.9665C38.1081 29.9665 39.0608 28.7047 39.0608 28.7047C38.7432 28.3893 37.7906 28.0738 37.7906 28.0738C39.696 27.7584 40.9662 26.8121 40.9662 26.8121C40.6487 26.4967 39.696 26.1812 39.696 26.1812C41.2838 25.8658 42.2365 24.604 42.2365 24.604C41.9189 24.2886 40.9662 24.2886 40.9662 24.2886C42.5541 23.6577 43.5067 22.396 43.5067 22.396C43.1892 22.396 42.2365 22.0805 42.2365 22.0805C42.8716 21.4497 43.5067 20.8188 43.5067 20.8188L43.1891 20.5034C43.5067 20.1879 44.4595 19.2416 44.4595 19.2416C44.1419 19.2416 44.1419 18.9262 44.1419 18.9262C44.4595 18.6107 46.6824 15.7718 46.6824 15.7718C45.0946 15.7718 42.5541 17.9799 42.5541 17.9799C42.5541 17.6644 42.2365 17.349 42.2365 17.349C41.6013 17.6644 40.3311 18.9262 40.3311 18.9262C40.3311 18.6107 40.0135 18.2953 40.0135 18.2953C38.7432 18.6107 37.473 20.1879 37.473 20.1879C37.473 19.557 37.1554 19.2416 37.1554 19.2416C36.2027 19.5571 35.5675 21.4497 35.5675 21.4497C35.5675 21.1342 35.25 20.5034 35.25 20.5034C34.2972 21.1342 33.6621 22.7114 33.6621 22.7114C33.6621 22.0805 33.3446 21.4497 33.3446 21.4497C32.0743 22.396 32.0743 24.2886 32.0743 24.2886C32.0743 23.9732 31.7568 23.3423 31.7568 23.3423C30.8041 23.9732 30.804 25.8658 30.804 25.8658C30.804 25.5503 30.1689 25.2349 30.1689 25.2349C29.2162 26.1812 29.2162 28.0738 29.2162 28.0738C28.8986 27.7584 28.8986 27.443 28.8986 27.443C28.581 27.7584 28.2635 29.651 28.2635 29.651C28.2635 29.3356 27.9459 29.0201 27.9459 29.0201C27.6284 29.3356 26.3581 31.2282 25.7229 32.4899C26.6756 30.9128 27.3108 29.3356 27.3108 29.3356C26.9932 29.3356 26.6757 29.3356 26.6757 29.3356C28.5811 27.7584 28.8986 25.2349 28.8986 25.2349C28.581 25.2349 27.6283 25.5503 27.6283 25.5503C28.8986 23.6577 28.5811 22.396 28.5811 22.396C28.2635 22.396 27.9459 22.7114 27.9459 22.7114C28.8986 21.1342 28.5811 19.8725 28.5811 19.8725C28.2635 19.8725 27.6283 20.1879 27.6283 20.1879C28.8986 19.2416 28.5811 17.0336 28.5811 17.0336C28.2635 17.349 26.9933 17.6644 26.9933 17.6644C28.5811 15.7718 28.2635 14.5101 28.2635 14.5101C27.6284 14.5101 26.9932 15.1409 26.6757 15.1409C27.9459 13.5638 27.6283 11.9866 27.6283 11.9866C27.3108 11.9866 26.6757 12.6175 26.6757 12.6175C27.3108 11.0403 26.9933 9.77853 26.9933 9.77853C26.6757 9.77853 26.0405 10.4094 25.7229 10.4094C26.6756 8.83222 26.0405 8.20135 26.0405 8.20135C25.7229 8.20135 25.0878 8.51679 25.0878 8.51679C25.723 7.25505 25.4054 6.62418 25.4054 6.62418C25.0879 6.62418 24.7703 6.93961 24.7703 6.93961C25.0878 5.9933 24.7703 4.73154 24.7703 4.73154C24.4527 4.73154 24.1351 4.73154 24.1351 4.73154C24.1351 4.10067 24.1351 2.83893 24.1351 2.83893L23.8176 3.15436C24.1352 1.57718 23.5 2.80235e-07 23.5 2.80235e-07C23.5 2.80235e-07 22.8648 1.57718 23.1824 3.15436L22.8648 2.83893C22.8648 2.83893 22.5473 4.10067 22.8648 4.73154C22.8648 4.73154 22.5473 4.41611 22.2297 4.73154C22.2297 4.73154 21.9122 5.67786 22.2297 6.93961L21.5946 6.62418C21.5946 6.62418 21.277 7.25505 21.9122 8.51679C21.9122 8.51679 21.277 8.20135 20.9594 8.20135C20.9594 8.20135 20.6419 8.83222 21.277 10.4094C21.277 10.4094 20.3243 9.77853 20.0067 9.77853C20.0067 9.77853 19.6892 10.7248 20.3243 12.6175C20.3243 12.6175 19.6891 11.9866 19.3716 11.9866C19.3716 11.9866 19.0541 13.5638 20.3243 15.1409C20.3243 15.1409 19.3716 14.5101 18.7365 14.5101C18.7365 14.5101 18.4189 15.7718 20.0067 17.6644C20.0067 17.6644 18.7365 17.349 18.4189 17.0336C18.4189 17.0336 18.1013 19.2416 19.3716 20.1879C19.3716 20.1879 18.7365 19.8725 18.4189 19.8725C18.4189 19.8725 18.1014 21.4497 19.0541 22.7114C19.0541 22.7114 18.7365 22.396 18.4189 22.396C18.4189 22.396 18.1013 23.6577 19.3716 25.5503C19.3716 25.5503 18.4189 25.2349 18.1013 25.2349C18.1013 25.2349 18.4189 27.7584 20.3243 29.3356C20.3243 29.3356 20.0067 29.3356 19.6891 29.3356C19.6891 29.3356 20.3243 30.9128 21.277 32.4899C20.6419 31.2282 19.3716 29.3356 19.0541 29.0201C19.0541 29.0201 18.7365 29.3356 18.7365 29.651C18.7365 29.651 18.4189 27.7584 18.1013 27.443C18.1013 27.443 18.1013 27.7584 17.7837 28.0738C17.7837 28.0738 17.7838 26.1812 16.8311 25.2349C16.8311 25.2349 16.1959 25.5503 16.1959 25.8658C16.1959 25.8658 16.1959 23.9732 15.2432 23.3423C15.2432 23.3423 14.9256 23.9732 14.9256 24.2886C14.9256 24.2886 14.6081 22.396 13.6554 21.4497C13.6554 21.4497 13.0202 22.0805 13.3378 22.7114C13.3378 22.7114 12.7027 21.1342 11.75 20.5034C11.75 20.5034 11.4324 21.1342 11.4324 21.4497C11.4324 21.4497 10.7972 19.5571 9.84453 19.2416C9.84453 19.2416 9.52704 19.557 9.52704 20.1879C9.52704 20.1879 8.25671 18.6107 6.98643 18.2953C6.98643 18.2953 6.66885 18.2953 6.66885 18.9262C6.66885 18.9262 5.39865 17.9799 4.76352 17.349C4.76352 17.349 4.44593 17.349 4.44593 17.9799C4.44593 17.9799 1.90533 15.7718 0.317491 15.7718C0.317491 15.7718 2.85809 18.6107 2.85809 18.9262L2.5405 18.9262C2.5405 18.9262 3.17562 19.8725 3.81076 20.1879C3.81076 20.1879 3.49317 20.1879 3.49317 20.5034C3.49317 20.5034 4.12838 21.1342 4.76352 21.7651C4.76352 21.7651 3.81074 21.7651 3.49317 22.0805C3.49317 22.0805 4.44593 23.6577 6.03377 23.9732C6.03377 23.9732 5.39865 24.2886 4.76352 24.2886C4.76352 24.2886 6.03375 25.5503 7.30402 25.8658C7.30402 25.8658 6.35134 26.1812 6.03377 26.4966C6.03377 26.4966 6.98647 27.7584 9.20945 27.7584C9.20945 27.7584 8.57433 28.0738 7.9392 28.3893C7.9392 28.3893 8.89188 29.651 10.7973 29.651C10.7973 29.651 10.1621 29.9664 9.84453 30.2819C9.84453 30.2819 10.4797 31.5436 12.7027 31.5436C12.7027 31.5436 12.0675 31.8591 11.75 32.1745C11.75 32.1745 13.0202 32.8054 14.608 32.8054C14.608 32.8054 13.6554 33.4363 13.6554 33.7517C13.6554 33.7517 15.2432 34.3826 16.8311 34.3826C16.8311 34.3826 16.5134 34.698 16.1959 35.0134C16.1959 35.0134 18.4189 35.9597 19.6891 36.5906C19.6891 36.5906 17.1487 35.6443 15.8784 35.3289C15.8784 35.3289 15.8784 35.6443 15.8784 35.9597C15.8784 35.9597 14.2905 35.0134 13.6554 35.0134L13.6554 35.3289C13.6554 35.3289 12.7027 34.3826 11.75 34.698C11.75 34.698 11.75 35.0134 11.75 35.3289C11.75 35.3289 10.7973 34.3826 9.52703 34.3826L9.52703 35.0134C9.52703 35.0134 8.25672 34.698 7.30402 34.698C7.30402 34.698 7.62161 35.3289 7.62161 35.6443C7.62161 35.6443 6.3513 35.0134 5.39859 35.0134C5.39859 35.0134 5.71618 35.6443 5.71618 35.9597C5.71618 35.9597 4.44587 35.3289 3.49317 35.6443C3.49317 35.6443 3.49317 35.9597 3.49317 36.2752C3.49317 36.2752 2.85805 36.2752 2.22292 35.9597L2.22292 36.2752C2.22292 36.2752 0.952704 36.2752 1.20369e-07 36.9061C1.20369e-07 36.9061 1.27027 37.8524 3.17568 37.8524C3.17568 37.8524 2.85809 38.1678 2.85809 38.4832C2.85809 38.4832 3.81081 38.7987 4.76352 38.4832C4.76352 38.4832 4.7635 38.7987 4.44593 39.1141C4.44593 39.1141 5.08105 39.4295 5.71618 39.1141C5.71618 39.1141 5.39859 39.4295 5.39859 39.745C5.39859 39.745 6.35134 40.0604 7.62161 39.745C7.62161 39.745 7.304 40.3758 6.98643 40.6913C6.98643 40.6913 8.57427 41.3222 10.1621 40.0604C10.1621 40.0604 9.8446 41.0067 9.52703 41.3222C9.52703 41.3222 10.7972 41.3222 11.75 40.3758C11.75 40.3758 11.4324 41.0067 11.4324 41.3222C11.4324 41.3222 12.3851 41.3222 13.6554 40.3758C13.6554 40.3758 13.3378 41.0067 13.3378 41.3222C13.3378 41.3222 14.9257 41.3222 15.5608 40.3758C15.5608 40.3758 15.5608 40.6913 15.5608 41.0067C15.5608 41.0067 16.831 40.6913 17.7837 40.0604L17.7837 40.3758C17.7837 40.3758 19.3716 39.745 20.0067 39.4295L20.0067 39.745L20.9594 39.4295C20.9594 39.4295 20.0067 39.745 19.6891 40.0604L20.0067 40.3758C20.0067 40.3758 19.054 40.3758 18.1013 41.3222C18.1013 41.3222 18.4189 41.6376 18.7365 41.3222C18.7365 41.3222 17.1486 41.953 16.8311 42.5839C16.8311 42.5839 17.1487 42.8993 17.4662 42.5839C17.4662 42.5839 15.8784 43.8456 15.2432 45.1074C15.2432 45.1074 15.5608 45.4228 15.8784 45.1074C15.8784 45.1074 15.2432 46.3691 15.2432 47C15.2432 47 16.831 46.0537 18.1013 44.792L18.1013 45.1074C18.1013 45.1074 19.3716 44.1611 19.6891 43.2148C19.6891 43.2148 19.6891 43.5302 19.6891 44.1611C19.6891 44.1611 20.9594 43.2148 21.277 41.953C21.277 41.953 21.277 42.2685 21.277 42.5839C21.277 42.5839 22.2297 41.6376 22.5472 40.6913C22.5472 40.6913 22.8648 41.0067 22.8648 41.3222C22.8648 41.3222 23.1824 39.745 23.1824 39.1141C23.1824 39.4295 23.5 41.3222 23.5 41.3222C23.8176 41.3222 23.8176 40.6913 23.8176 40.6913C23.8176 41.6376 25.0878 42.5839 25.0878 42.5839C25.0878 42.2685 25.0878 41.953 25.0878 41.953C25.723 43.2148 26.6757 44.1611 26.6757 44.1611C26.6757 43.8456 26.6757 43.2148 26.6757 43.2148C26.9932 44.1611 28.2635 45.1074 28.2635 45.1074C28.2635 44.792 28.2635 44.792 28.2635 44.792C29.2162 46.0537 31.1216 47 31.1216 47C31.1216 46.3691 30.4864 45.1074 30.4864 45.1074C30.804 45.1074 31.1216 45.1074 31.1216 45.1074C30.4865 43.8456 28.8986 42.5839 28.8986 42.5839C29.2162 42.5839 29.5338 42.5839 29.5338 42.5839C29.2162 41.953 27.6283 41.3222 27.6283 41.3222C27.9459 41.3222 28.2635 41.3222 28.2635 41.3222C27.3108 40.3758 26.3581 40.3758 26.3581 40.3758C26.6757 40.3758 26.6757 40.0604 26.6757 40.0604C26.3581 39.745 25.4054 39.4295 25.4054 39.4295L26.3581 39.745L26.3581 39.4295C26.9932 39.745 28.5811 40.3758 28.5811 40.3758C28.5811 40.0604 28.5811 40.0604 28.5811 40.0604C29.2162 40.6913 30.804 41.0067 30.804 41.0067C30.804 40.6913 30.804 40.3758 30.804 40.3758C31.4392 41.3222 33.027 41.3222 33.027 41.3222C33.027 41.0067 32.7094 40.3758 32.7094 40.3758C33.9797 41.3222 34.9325 41.3222 34.9325 41.3222C34.9325 41.0067 34.6149 40.3758 34.6149 40.3758C35.5676 41.3222 36.8378 41.3222 36.8378 41.3222C36.5202 40.6913 36.2027 40.0604 36.2027 40.0604C37.7906 41.3222 39.3784 40.6913 39.3784 40.6913C39.3784 40.3758 38.7432 39.745 38.7432 39.745C40.0135 40.0604 40.9662 39.745 40.9662 39.745C40.6487 39.4295 40.6486 39.1141 40.6486 39.1141C41.2838 39.4295 41.9189 39.1141 41.9189 39.1141L41.6013 38.4832C42.554 38.7987 43.5067 38.4832 43.5067 38.4832C43.1892 38.1678 43.1891 37.8524 43.1891 37.8524C45.7297 37.5369 47 36.9061 47 36.9061Z" fill="white"/>
</svg>
