<svg width="49" height="34" viewBox="0 0 49 34" fill="none" xmlns="http://www.w3.org/2000/svg">
<path d="M40.8952 4.50129C41.1828 3.91716 42.3333 4.79336 44.6344 2.16476C46.0725 0.412366 46.6477 -1.04797 48.3735 0.996495C49.8116 3.04096 48.6612 3.33303 46.0725 4.50129C43.4838 5.66956 43.1962 8.00609 43.1962 6.83782C42.3333 5.08542 40.6076 4.79336 40.8952 4.50129ZM27.6643 3.6251C27.6643 3.6251 19.6107 5.96162 14.4334 10.0505C11.2695 12.3871 3.79111 22.0253 3.79111 22.0253C3.79111 22.0253 4.36637 14.7236 10.9818 9.46643C14.4334 6.83783 23.9251 2.45683 27.6643 3.6251ZM39.7446 5.08543C39.7446 5.08543 23.6375 9.17436 14.721 15.3078C6.37978 21.1491 2.64062 25.238 2.64062 25.238C2.64062 25.238 11.8447 12.9712 15.5839 10.3426C19.3231 7.71402 38.8818 -2.80036 39.7446 5.08543ZM42.6209 8.88229C42.6209 8.88229 45.2096 10.3426 44.0591 13.5553C42.9086 16.7681 39.7447 18.5205 36.5808 22.9015C32.8416 27.8666 27.089 33.7079 16.4468 34C5.80454 34 3.21587 31.6635 3.21587 31.6635C3.21587 31.6635 13.8581 30.7873 25.0756 24.3618C36.2931 17.9363 42.6209 8.88229 42.6209 8.88229ZM19.0354 13.8474C22.1993 12.095 34.2797 6.54575 40.0323 5.66955C45.7849 4.79335 38.0189 15.0157 29.1024 20.857C16.1591 29.3269 1.77772 31.0793 1.77772 31.0793C-5.70061 29.619 12.42 17.6443 19.0354 13.8474Z" fill="white"/>
</svg>
