<svg width="160" height="160" viewBox="0 0 160 160" fill="none" xmlns="http://www.w3.org/2000/svg">
<path fill-rule="evenodd" clip-rule="evenodd" d="M66.4241 9.87535C61.5552 11.3368 55.9723 16.9753 52.5787 23.8565C48.6057 31.9145 45.5673 46.2803 45.5432 57.1222C45.5348 61.032 45.2866 62.4695 44.4068 63.7134C41.6935 67.5459 39.3251 73.3899 37.9592 79.6216C35.5836 90.4581 34.7879 92.9927 30.6034 103.053C26.32 110.573 24.3661 120.633 28.354 128.819C30.9279 134.101 36.7981 139.629 43.1406 142.742C53.8311 147.988 69.6441 151.05 83.0923 150.477C112.915 149.205 132.669 137.698 133.746 120.969C134.097 115.512 133.292 112.192 129.282 102.554C125.539 93.5602 124.18 89.1818 122.461 80.5833C121.244 74.4966 118.491 67.5118 115.852 63.8153C114.875 62.4485 114.64 61.1602 114.632 57.1222C114.596 41.2195 109.211 23.2747 102.246 15.8494C95.6974 8.86929 89.3946 7.5936 84.8441 12.3267L83.0923 14.1488L82.9156 31.1877L82.7389 48.2265H80.0875H77.4361L77.2594 31.1967L77.0827 14.1668L75.5803 12.5442C72.974 9.72975 69.8965 8.83274 66.4241 9.87535ZM70.8123 15.2915C71.9181 15.8817 71.9746 16.711 71.9746 32.301V48.6897L69.2775 49.093C66.349 49.531 64.7631 50.6892 64.7631 52.3904C64.7631 54.566 66.2583 55.0442 70.7528 54.3042C76.0677 53.4288 84.1073 53.4288 89.4222 54.3042C93.9168 55.0442 95.4119 54.566 95.4119 52.3904C95.4119 50.6892 93.826 49.531 90.8976 49.093L88.2005 48.6897V32.2668V15.844L89.6758 15.1741C91.7533 14.2303 94.0934 15.3251 97.7142 18.9358C103.661 24.8655 107.911 37.1581 109.03 51.6659L109.421 56.7423L107.519 55.7621C105.042 54.4846 103.224 55.327 103.224 57.7532C103.224 59.0583 103.785 59.8354 105.659 61.1309C111.471 65.1461 115.259 71.9776 117.408 82.3186C119.397 91.889 120.22 94.5135 124.467 104.845C127.998 113.436 128.164 114.067 128.164 118.932C128.164 123.055 127.897 124.565 126.765 126.859C122.878 134.729 112.873 140.377 97.0417 143.64C88.2888 145.444 71.8862 145.444 63.1333 143.64C47.3017 140.377 37.2975 134.729 33.4105 126.859C29.8962 119.743 32.9391 111.581 35.708 104.845C39.9555 94.5135 40.7776 91.889 42.7674 82.3186C44.9164 71.9776 48.7043 65.1461 54.5156 61.1309C56.3899 59.8354 56.9506 59.0583 56.9506 57.7532C56.9506 55.327 55.1333 54.4846 52.6556 55.7621L50.7542 56.7423L51.1454 51.6659C52.4549 34.6804 57.7836 21.4783 65.3839 16.3892C68.1717 14.5221 69.0407 14.346 70.8123 15.2915ZM65.5864 87.5088C64.1796 89.6492 60.4969 91.3689 57.3178 91.3689C53.3112 91.3689 51.515 93.653 53.7613 95.8928C55.1243 97.2518 61.1621 96.7958 64.5371 95.0791C67.3502 93.6482 70.7727 90.0219 70.7727 88.4717C70.7727 85.7406 67.1861 85.0743 65.5864 87.5088ZM90.1235 86.6951C88.9348 87.8803 89.2948 89.4077 91.2984 91.6829C93.8813 94.616 97.3723 96.2649 101.739 96.6143C104.647 96.8474 105.605 96.6994 106.414 95.8928C108.66 93.653 106.864 91.3689 102.857 91.3689C99.6782 91.3689 95.9955 89.6492 94.5886 87.5088C93.5117 85.87 91.3465 85.4758 90.1235 86.6951ZM71.7168 103.695C70.1561 105.252 70.6122 106.426 74.0779 109.773C75.8958 111.528 77.3814 113.161 77.379 113.402C77.3712 114.262 73.2883 116.593 71.1957 116.931C70.0227 117.121 67.6837 116.946 65.9987 116.543C63.5798 115.965 62.7475 115.965 62.0462 116.546C60.7096 117.652 60.974 119.604 62.691 121.306C63.5341 122.143 65.1008 124.037 66.1723 125.517C67.474 127.315 69.2931 128.806 71.6573 130.011C74.748 131.587 75.8081 131.812 80.0448 131.79C87.3964 131.751 91.9757 129.384 95.1692 123.971C95.9648 122.623 97.2911 121.214 98.1169 120.838C99.8584 120.047 100.155 117.725 98.6709 116.497C97.9119 115.869 97.1914 115.854 95.0562 116.423C91.3074 117.423 89.5562 117.315 86.6362 115.906C82.3069 113.817 82.2323 113.336 85.7251 110.066C88.8651 107.127 89.6217 105.01 88.0803 103.473C86.8489 102.245 85.6338 102.663 83.0298 105.212C80.0971 108.081 78.9415 108.013 76.5046 104.828C74.7883 102.584 73.2071 102.21 71.7168 103.695Z" fill="#522C29"/>
</svg>
