<svg width="160" height="160" viewBox="0 0 160 160" fill="none" xmlns="http://www.w3.org/2000/svg">
<path fill-rule="evenodd" clip-rule="evenodd" d="M12.6774 45.9464C12.2945 46.8801 11.9894 54.5451 12.0003 62.9797C12.022 80.924 13.1245 86.3988 19.3044 99.2491C24.3663 109.775 30.6167 116.414 39.3048 120.492C49.768 125.401 62.1305 124.414 71.5871 117.797C74.0004 116.108 76.1049 114.855 76.2634 115.013C77.5705 116.318 80.3811 125.822 80.8727 130.596C81.4149 135.869 81.6891 136.5 83.4461 136.5C85.0556 136.5 85.6965 135.557 86.9764 131.313C87.8373 128.461 89.7599 124.177 91.2508 121.796L93.9619 117.466L97.5456 120.524C103.949 125.985 112.539 127.128 121.703 123.735C128.915 121.066 137.497 112.367 142.119 103.041C145.692 95.8311 149.447 82.8807 148.957 79.4572C148.488 76.1845 139.421 74.0086 126.037 73.9563C116.753 73.9202 114.385 74.2197 109.743 76.0167C93.14 82.445 85.7399 94.2019 89.7174 107.836L91.1802 112.851L88.2419 117.406C85.3063 121.956 84.5 126.5 84 121.5C83.9955 120.88 82.9329 117.683 81.7172 115.082L79.5085 110.352L82.4052 104.257C86.6399 95.3479 86.5712 84.4538 82.2087 75.6225C77.4872 66.0648 69.0389 58.2464 57.4125 52.6733C45.4095 46.9206 38.9246 45.3384 24.8976 44.7403C14.2081 44.2838 13.3237 44.3713 12.6774 45.9464ZM79.5194 97.5857C78.4548 101.077 77.1677 104.19 76.6589 104.503C76.1493 104.817 73.1938 102.706 70.0908 99.8129C64.4722 94.5754 55.0155 87.7871 53.3382 87.7871C52.5108 87.7871 51.3576 89.8322 51.3576 91.2981C51.3576 91.6589 53.9039 93.6381 57.0151 95.6949C60.1272 97.7516 64.9067 101.693 67.6368 104.452C73.3839 110.262 73.2979 110.95 66.2717 115.301C59.0209 119.791 47.1025 119.406 39.7275 115.335C25.2724 107.355 16.6784 88.2535 16.5788 63.8818C16.5526 57.4318 16.8341 51.4022 17.2052 50.483C17.8153 48.9711 18.5956 48.8692 25.3403 49.4231C48.5378 51.3253 88.6149 67.7387 79.5194 97.5857ZM137.737 79.8091C140.603 80.3828 143.139 81.348 143.372 81.9533C144.051 83.716 141.067 94.0467 138.038 100.416C133.283 110.415 122.148 122.432 109.839 120.588C105.428 119.928 99.6448 116.95 98.8554 114.933C98.1566 113.143 103.443 108.365 109.565 105.253C113.286 103.363 113.825 102.756 113.3 101.053C112.962 99.959 112.511 98.8729 112.298 98.6393C111.719 98.0069 103.995 102.246 99.4529 105.689C94.7367 109.263 93.9365 108.673 93.9157 101.603C93.8985 95.8167 94.7865 93.4108 98.4915 89.2061C106.228 80.4243 121.973 76.6544 137.737 79.8091Z" fill="#522C29"/>
</svg>
