<svg width="1440" height="640" viewBox="0 0 1440 640" fill="none" xmlns="http://www.w3.org/2000/svg">
<path fill-rule="evenodd" clip-rule="evenodd" d="M1484.1 49.3969C1484.1 49.3969 1287.46 -61.7461 736.984 49.3969C186.504 160.54 -10.1328 49.3969 -10.1328 49.3969V145.129H-34L-33.8883 255.873C-33.8358 305.882 -13.5686 315.979 12.0112 328.721C25.5962 335.489 40.6797 343.003 55.0294 357.638C66.7001 369.533 67.91 381.891 68.1408 491.43C68.3568 592.65 68.9375 602.772 75.1284 613.357C78.8437 619.706 85.2915 627.671 89.4535 631.057C108.447 646.511 138.877 641.194 148.027 620.823C157.386 599.997 152.066 548.98 131.383 461.129C127.924 446.447 124.898 419.825 124.656 401.969C124.272 373.676 125.095 368.622 131.04 362.646C138.583 355.071 149.598 352.784 165.245 355.547C184.369 358.924 192.354 368.05 204.233 400.092C213.302 424.558 222.523 436.875 237.95 445.13C256.262 454.927 285.419 458.198 300.172 452.11C317.207 445.081 318.972 432.935 310.104 383.673C300.522 330.43 310.774 313.951 353.493 313.951C369.318 313.951 383.356 317.734 395.645 325.314C406.687 332.123 413.436 340.231 431.186 368C439.224 380.569 449.718 393.842 454.509 397.493C480.073 416.975 535.349 408.767 565.097 381.071C586.629 361.023 599.759 355.795 628.577 355.795C649.16 355.795 663.042 361.133 672.126 372.536C678.239 380.208 678.905 387.159 678.905 443.092C678.905 499.802 679.474 505.54 685.516 509.827C693.539 515.518 707.559 516.183 715.868 511.267C728.354 503.883 730.353 488.544 725.327 438.723C720.458 390.495 721.381 373.35 729.303 364.783C737.568 355.847 756.498 355.644 768.135 364.365C776.463 370.608 781.191 390.863 781.459 421.448C781.697 448.675 785.104 458.054 795.218 459.334C805.765 460.67 810.913 448.591 820.332 400.398C831.426 343.662 845.669 321.481 872.696 318.852C898.878 316.306 916.736 329.246 941.82 368.936C967.227 409.143 983.231 419.842 1010.41 414.794C1025.66 411.96 1029.95 407.554 1032.73 391.831C1037.1 367.158 1046.57 360.124 1075.42 360.124C1089.81 360.124 1091.08 360.475 1097.6 366.257C1112.51 379.481 1114.39 391.714 1113.35 468.343C1112.8 508.825 1113.98 547.18 1116 554.642C1121.67 575.534 1138.27 585.178 1151.5 575.261C1163.63 566.171 1165.64 544.466 1160.65 476.418C1154.45 392.008 1159.1 371.184 1185.02 367.365C1206.63 364.18 1218.54 369.386 1243.03 392.715C1262.57 411.331 1273.85 418.508 1290.43 422.874C1307.32 427.322 1328.28 427.703 1337.55 423.73C1346.28 419.994 1345.85 409.383 1335.9 383.152C1324.41 352.832 1330.6 341.011 1360.52 336.166C1390.02 331.388 1397.65 336.312 1395.42 358.681C1392.22 390.688 1393.37 398.712 1401.74 403.064C1416.07 410.511 1436.11 409.214 1446.3 400.178C1452.58 394.609 1453.26 389.567 1453.48 346.416C1453.71 304.081 1454.45 298.27 1460.21 294.022C1464.93 290.545 1469.48 287.143 1473.86 283.814C1477.26 283.827 1480.67 283.834 1484.1 283.834V275.937C1593.87 190.352 1587.35 155.768 1484.1 143.401V49.3969ZM1445.05 283.539C1450.62 283.623 1456.24 283.69 1461.91 283.738C1460.52 284.28 1459.01 284.855 1457.41 285.453C1438.26 292.601 1432.81 298.722 1432.78 313.109C1432.76 324.858 1430.21 324.842 1425.19 313.065C1420.23 301.432 1426.07 290.793 1440.5 285.202C1442.12 284.571 1443.61 284.022 1445.05 283.539ZM820.622 335.064C828.853 325.27 833.354 322.445 853.349 314.502C874.207 306.217 875.909 303.938 859.458 306.335C834.21 310.011 816.561 321.716 813.158 337.037L811.073 346.416L820.622 335.064ZM575.636 358.318C581.246 356.25 593.375 352.897 602.589 350.865C611.802 348.835 616.828 347.171 613.757 347.17C603.121 347.162 569.657 354.127 565.357 357.243C558.813 361.981 564.181 362.542 575.636 358.318ZM498.27 399.083C491.241 399.083 473.108 386.081 466.496 376.305C456.955 362.19 452.283 361.586 454.993 374.819C457.848 388.749 466.18 397.086 480.014 399.859C492.202 402.302 502.075 402.601 502.075 400.526C502.075 399.732 500.362 399.083 498.27 399.083ZM1000.01 408.101C991.738 404.495 983.116 395.952 972.879 381.221C964.618 369.334 956.897 362.006 961.293 370.228C962.354 372.21 964.178 377.556 965.347 382.108C969.264 397.373 985.502 410.626 1000.29 410.626C1005.05 410.626 1005.01 410.283 1000.01 408.101ZM1413.29 399.405C1418.18 400.981 1418.54 400.741 1415.93 397.629C1414.28 395.65 1411.89 388.189 1410.62 381.047L1408.31 368.06L1403.24 376.273C1399.08 383.012 1399.02 385.662 1402.9 391.036C1405.5 394.637 1410.17 398.405 1413.29 399.405ZM274.85 446.293C265.446 443.404 252.878 435.753 246.631 429.119C243.407 425.693 236.025 415.749 230.229 407.019L219.69 391.147L219.481 399.805C219.225 410.524 227.314 425.777 237.265 433.337C245.168 439.342 268.376 448.174 276.048 448.096C278.982 448.067 278.558 447.432 274.85 446.293ZM1309.99 419.117C1304.91 418.332 1297.56 416.587 1293.64 415.239C1289.73 413.893 1280.91 408.264 1274.02 402.731C1260.05 391.498 1256.92 394.22 1269.19 406.933C1278.06 416.117 1291.1 420.766 1307.62 420.636C1319.05 420.545 1319.09 420.523 1309.99 419.117ZM699.488 506.62C706.222 508.982 706.319 508.879 702.462 503.491C700.27 500.43 697.422 488.833 696.134 477.722C694.849 466.612 692.56 458.257 691.052 459.158C689.541 460.058 687.214 467.255 685.878 475.151C683.167 491.193 688.111 502.629 699.488 506.62ZM106.02 625.622C104.97 623.638 102.174 613.249 99.8065 602.535C97.4425 591.821 94.4271 564.225 93.1093 541.211C91.7914 518.196 89.4908 500.989 87.9942 502.973C86.5014 504.957 83.244 517.735 80.7572 531.367C77.2243 550.733 77.2132 560.832 80.7088 577.541C85.1724 598.866 96.0428 621.989 103.827 626.73C107.311 628.851 107.647 628.684 106.02 625.622ZM1134.78 567.023C1140.61 572.955 1142.61 571.105 1138.34 563.738C1136.35 560.298 1133.51 548.628 1132.04 537.804C1129.13 516.442 1123.77 515.326 1123.77 536.081C1123.77 549.069 1127.54 559.651 1134.78 567.023Z" fill="#37682D"/>
<path fill-rule="evenodd" clip-rule="evenodd" d="M1484.1 49.3969C1484.1 49.3969 1287.46 -61.7461 736.984 49.3969C186.504 160.54 -10.1328 49.3969 -10.1328 49.3969V145.129H-34L-33.8883 255.873C-33.8358 305.882 -13.5686 315.979 12.0112 328.721C25.5962 335.489 40.6797 343.003 55.0294 357.638C66.7001 369.533 67.91 381.891 68.1408 491.43C68.3568 592.65 68.9375 602.772 75.1284 613.357C78.8437 619.706 85.2915 627.671 89.4535 631.057C108.447 646.511 138.877 641.194 148.027 620.823C157.386 599.997 152.066 548.98 131.383 461.129C127.924 446.447 124.898 419.825 124.656 401.969C124.272 373.676 125.095 368.622 131.04 362.646C138.583 355.071 149.598 352.784 165.245 355.547C184.369 358.924 192.354 368.05 204.233 400.092C213.302 424.558 222.523 436.875 237.95 445.13C256.262 454.927 285.419 458.198 300.172 452.11C317.207 445.081 318.972 432.935 310.104 383.673C300.522 330.43 310.774 313.951 353.493 313.951C369.318 313.951 383.356 317.734 395.645 325.314C406.687 332.123 413.436 340.231 431.186 368C439.224 380.569 449.718 393.842 454.509 397.493C480.073 416.975 535.349 408.767 565.097 381.071C586.629 361.023 599.759 355.795 628.577 355.795C649.16 355.795 663.042 361.133 672.126 372.536C678.239 380.208 678.905 387.159 678.905 443.092C678.905 499.802 679.474 505.54 685.516 509.827C693.539 515.518 707.559 516.183 715.868 511.267C728.354 503.883 730.353 488.544 725.327 438.723C720.458 390.495 721.381 373.35 729.303 364.783C737.568 355.847 756.498 355.644 768.135 364.365C776.463 370.608 781.191 390.863 781.459 421.448C781.697 448.675 785.104 458.054 795.218 459.334C805.765 460.67 810.913 448.591 820.332 400.398C831.426 343.662 845.669 321.481 872.696 318.852C898.878 316.306 916.736 329.246 941.82 368.936C967.227 409.143 983.231 419.842 1010.41 414.794C1025.66 411.96 1029.95 407.554 1032.73 391.831C1037.1 367.158 1046.57 360.124 1075.42 360.124C1089.81 360.124 1091.08 360.475 1097.6 366.257C1112.51 379.481 1114.39 391.714 1113.35 468.343C1112.8 508.825 1113.98 547.18 1116 554.642C1121.67 575.534 1138.27 585.178 1151.5 575.261C1163.63 566.171 1165.64 544.466 1160.65 476.418C1154.45 392.008 1159.1 371.184 1185.02 367.365C1206.63 364.18 1218.54 369.386 1243.03 392.715C1262.57 411.331 1273.85 418.508 1290.43 422.874C1307.32 427.322 1328.28 427.703 1337.55 423.73C1346.28 419.994 1345.85 409.383 1335.9 383.152C1324.41 352.832 1330.6 341.011 1360.52 336.166C1390.02 331.388 1397.65 336.312 1395.42 358.681C1392.22 390.688 1393.37 398.712 1401.74 403.064C1416.07 410.511 1436.11 409.214 1446.3 400.178C1452.58 394.609 1453.26 389.567 1453.48 346.416C1453.71 304.081 1454.45 298.27 1460.21 294.022C1464.93 290.545 1469.48 287.143 1473.86 283.814C1477.26 283.827 1480.67 283.834 1484.1 283.834V275.937C1593.87 190.352 1587.35 155.768 1484.1 143.401V49.3969ZM1445.05 283.539C1450.62 283.623 1456.24 283.69 1461.91 283.738C1460.52 284.28 1459.01 284.855 1457.41 285.453C1438.26 292.601 1432.81 298.722 1432.78 313.109C1432.76 324.858 1430.21 324.842 1425.19 313.065C1420.23 301.432 1426.07 290.793 1440.5 285.202C1442.12 284.571 1443.61 284.022 1445.05 283.539ZM820.622 335.064C828.853 325.27 833.354 322.445 853.349 314.502C874.207 306.217 875.909 303.938 859.458 306.335C834.21 310.011 816.561 321.716 813.158 337.037L811.073 346.416L820.622 335.064ZM575.636 358.318C581.246 356.25 593.375 352.897 602.589 350.865C611.802 348.835 616.828 347.171 613.757 347.17C603.121 347.162 569.657 354.127 565.357 357.243C558.813 361.981 564.181 362.542 575.636 358.318ZM498.27 399.083C491.241 399.083 473.108 386.081 466.496 376.305C456.955 362.19 452.283 361.586 454.993 374.819C457.848 388.749 466.18 397.086 480.014 399.859C492.202 402.302 502.075 402.601 502.075 400.526C502.075 399.732 500.362 399.083 498.27 399.083ZM1000.01 408.101C991.738 404.495 983.116 395.952 972.879 381.221C964.618 369.334 956.897 362.006 961.293 370.228C962.354 372.21 964.178 377.556 965.347 382.108C969.264 397.373 985.502 410.626 1000.29 410.626C1005.05 410.626 1005.01 410.283 1000.01 408.101ZM1413.29 399.405C1418.18 400.981 1418.54 400.741 1415.93 397.629C1414.28 395.65 1411.89 388.189 1410.62 381.047L1408.31 368.06L1403.24 376.273C1399.08 383.012 1399.02 385.662 1402.9 391.036C1405.5 394.637 1410.17 398.405 1413.29 399.405ZM274.85 446.293C265.446 443.404 252.878 435.753 246.631 429.119C243.407 425.693 236.025 415.749 230.229 407.019L219.69 391.147L219.481 399.805C219.225 410.524 227.314 425.777 237.265 433.337C245.168 439.342 268.376 448.174 276.048 448.096C278.982 448.067 278.558 447.432 274.85 446.293ZM1309.99 419.117C1304.91 418.332 1297.56 416.587 1293.64 415.239C1289.73 413.893 1280.91 408.264 1274.02 402.731C1260.05 391.498 1256.92 394.22 1269.19 406.933C1278.06 416.117 1291.1 420.766 1307.62 420.636C1319.05 420.545 1319.09 420.523 1309.99 419.117ZM699.488 506.62C706.222 508.982 706.319 508.879 702.462 503.491C700.27 500.43 697.422 488.833 696.134 477.722C694.849 466.612 692.56 458.257 691.052 459.158C689.541 460.058 687.214 467.255 685.878 475.151C683.167 491.193 688.111 502.629 699.488 506.62ZM106.02 625.622C104.97 623.638 102.174 613.249 99.8065 602.535C97.4425 591.821 94.4271 564.225 93.1093 541.211C91.7914 518.196 89.4908 500.989 87.9942 502.973C86.5014 504.957 83.244 517.735 80.7572 531.367C77.2243 550.733 77.2132 560.832 80.7088 577.541C85.1724 598.866 96.0428 621.989 103.827 626.73C107.311 628.851 107.647 628.684 106.02 625.622ZM1134.78 567.023C1140.61 572.955 1142.61 571.105 1138.34 563.738C1136.35 560.298 1133.51 548.628 1132.04 537.804C1129.13 516.442 1123.77 515.326 1123.77 536.081C1123.77 549.069 1127.54 559.651 1134.78 567.023Z" fill="url(#paint0_linear_920_2156)" fill-opacity="0.2"/>
<defs>
<linearGradient id="paint0_linear_920_2156" x1="765" y1="31.1302" x2="796.929" y2="767.66" gradientUnits="userSpaceOnUse">
<stop stop-color="#D1C0BE" stop-opacity="0"/>
<stop offset="0.627213" stop-color="#2A100E"/>
<stop offset="1" stop-color="#1B0605"/>
</linearGradient>
</defs>
</svg>
