<svg width="160" height="161" viewBox="0 0 160 161" fill="none" xmlns="http://www.w3.org/2000/svg">
<path d="M41.0887 39.116L41.0887 39.116C39.9085 40.6382 36.6991 46.0311 33.955 51.0939C28.649 60.8832 22.6722 71.186 20.2607 74.7026L20.4669 74.844L20.2607 74.7026C19.8495 75.3024 19.4758 75.9669 19.2039 76.5565C19.068 76.8514 18.9561 77.1308 18.8776 77.3764C18.8007 77.6172 18.75 77.8438 18.75 78.0263C18.75 78.4494 19.0376 78.8966 19.4938 79.3593C19.9615 79.8337 20.6563 80.3733 21.5754 80.9823C23.4155 82.2014 26.193 83.723 29.9539 85.5812L35.1253 88.1366L36.2605 91.6377C38.0987 97.308 41.7589 105.692 44.3591 110.185C51.3855 122.327 59.4461 129.581 69.6566 132.899C71.4209 133.472 72.6945 133.812 74.1932 134.007C75.6876 134.201 77.3984 134.25 80.0351 134.25C82.6718 134.25 84.3826 134.201 85.877 134.007C87.3756 133.812 88.6493 133.472 90.4136 132.899C96.4071 130.951 100.704 128.253 105.732 123.287C112.83 116.277 117.913 107.639 122.809 94.3092C123.479 92.4851 124.164 90.8056 124.728 89.5701C125.011 88.9517 125.261 88.4488 125.461 88.0958C125.562 87.9187 125.647 87.7852 125.715 87.6954C125.749 87.6502 125.775 87.6214 125.793 87.6047C125.795 87.6031 125.796 87.6016 125.798 87.6004C126.198 87.4764 126.998 87.1209 127.999 86.6422C129.026 86.1506 130.284 85.5193 131.581 84.8479C134.171 83.5065 136.928 81.9985 138.309 81.1208C139.154 80.5836 139.815 80.121 140.292 79.6787C140.769 79.2354 141.081 78.795 141.198 78.298C141.316 77.7988 141.228 77.2825 140.986 76.7073C140.746 76.1352 140.345 75.4832 139.809 74.7026C137.424 71.2241 131.418 60.9046 126.414 51.6823L126.194 51.8015L126.414 51.6823C120.895 41.5139 118.117 37.4882 114.166 33.9899C105.752 26.5391 93.5373 24.6095 84.2109 29.2868C82.3553 30.2174 81.1864 30.6565 80.0351 30.6565C78.8838 30.6565 77.7149 30.2174 75.8593 29.2868C70.7359 26.7172 64.9503 26.097 58.736 27.4386C52.0811 28.8747 45.8042 33.0348 41.0887 39.116ZM129.324 66.8951L129.324 66.8952C129.792 67.6663 130.191 68.3886 130.459 68.93C130.538 69.0915 130.605 69.2349 130.658 69.3574C130.451 69.2285 130.177 69.0435 129.837 68.8028C129.024 68.2273 127.853 67.3469 126.366 66.1929C123.392 63.8855 119.16 60.4914 114.008 56.2714C109.307 52.4209 106.429 50.2083 104.08 48.961C101.711 47.7027 99.8804 47.4267 97.2904 47.4205C95.1466 47.4153 91.7658 47.8053 89.7626 48.2897C87.4594 48.8465 83.8103 49.1386 80.1493 49.1538C76.4882 49.169 72.8484 48.9071 70.5637 48.3697C68.71 47.9334 65.6346 47.4504 63.7201 47.2944L63.6998 47.5436L63.7201 47.2944C62.177 47.1687 61.1958 47.1357 60.233 47.3122C59.271 47.4887 58.3424 47.8716 56.8983 48.5451L57.004 48.7717L56.8983 48.5451C55.0955 49.386 52.0863 51.3236 50.1975 52.856L50.355 53.0501L50.1975 52.856C43.7013 58.1269 38.464 62.3362 34.8097 65.2277C32.9824 66.6735 31.5519 67.789 30.5582 68.5426C30.061 68.9196 29.6751 69.2046 29.4042 69.3947C29.3914 69.4037 29.3789 69.4124 29.3667 69.421C29.3669 69.4203 29.3672 69.4196 29.3674 69.4189C29.4987 69.0879 29.7349 68.6208 30.0464 68.1C30.6806 67.0394 33.5195 61.9101 36.3532 56.7056L36.1336 56.586L36.3532 56.7056C44.268 42.1681 46.9054 38.6158 52.1552 35.2686C54.2799 33.9142 56.1811 33.0322 58.2755 32.5119C60.3716 31.9912 62.6738 31.8297 65.6046 31.9313C67.9158 32.0115 69.268 32.0998 70.4148 32.3519C71.555 32.6025 72.5022 33.0174 73.9992 33.7729L74.1119 33.5498L73.9992 33.7729C76.2786 34.9231 78.1476 35.5126 80.0323 35.5136C81.9169 35.5147 83.7877 34.9273 86.0706 33.7798L85.9583 33.5564L86.0706 33.7798C92.0743 30.7613 100.781 31.1244 106.919 34.6608C112.537 37.8976 115.216 41.2983 122.334 54.3752C125.235 59.7035 128.381 65.3382 129.324 66.8951ZM82.0399 87.4411L82.04 87.441C82.0767 87.3726 82.1031 87.2855 82.1241 87.1973C82.1463 87.1045 82.1668 86.9917 82.1861 86.8613C82.2248 86.6001 82.2605 86.2551 82.2936 85.8322C82.3597 84.9856 82.416 83.8129 82.4618 82.3464C82.5533 79.4125 82.6029 75.2921 82.6029 70.2304V54.3519L85.5993 54.0237C87.3837 53.8283 90.718 53.2088 93.0164 52.6467C94.6871 52.238 95.9879 51.9744 97.2298 51.9819C98.4634 51.9893 99.6512 52.2647 101.088 52.9565C103.984 54.3513 107.848 57.4144 115.051 63.3145C119.264 66.7648 123.117 69.8846 123.608 70.2417L123.608 70.2418C123.81 70.3883 123.924 70.4934 123.995 70.6231C124.064 70.7499 124.107 70.9302 124.095 71.2538C124.07 71.9176 123.822 73.0463 123.314 75.2162L123.557 75.2733L123.314 75.2162C116.368 104.851 104.829 122.861 89.6507 128.061C87.1508 128.918 83.6009 129.351 80.0351 129.351C76.4693 129.351 72.9194 128.918 70.4195 128.061C55.4176 122.921 44.5216 106.218 37.0183 76.5522C36.6501 75.0963 36.3328 73.7318 36.1181 72.7068C36.0107 72.1939 35.9296 71.7685 35.8806 71.4603C35.8561 71.3056 35.8403 71.1844 35.833 71.098C35.8303 71.0664 35.829 71.0417 35.8286 71.0234C35.8361 71.0142 35.8458 71.0031 35.8578 70.9897C35.8989 70.9439 35.9591 70.8825 36.0392 70.805C36.1988 70.6507 36.4271 70.4428 36.7163 70.1879C37.2941 69.6786 38.1068 68.9886 39.0809 68.1771C41.0287 66.5542 43.6165 64.4494 46.2495 62.3394C48.8825 60.2294 51.5596 58.1151 53.6858 56.4732C54.749 55.6522 55.6734 54.9501 56.3853 54.4259C57.1059 53.8955 57.5895 53.5618 57.7832 53.4623C59.7057 52.4745 60.8238 51.9884 62.0753 51.8859C63.3345 51.7828 64.7494 52.0659 67.2698 52.691C69.4501 53.2319 72.6873 53.8324 74.4711 54.0263L77.4673 54.3521V70.606C77.4673 76.673 77.508 80.8371 77.6058 83.5418C77.6546 84.8934 77.7179 85.8863 77.7984 86.5722C77.8386 86.9146 77.8838 87.1873 77.9357 87.3928C77.9617 87.4955 77.9906 87.5868 78.0238 87.6639C78.0558 87.7383 78.0985 87.8152 78.1592 87.8755C78.6986 88.4114 79.5025 88.6054 80.2357 88.5263C80.967 88.4475 81.6908 88.0892 82.0399 87.4411ZM35.8293 70.9913C35.8293 70.9915 35.8292 70.9924 35.829 70.9939L35.8293 70.9913ZM33.0406 81.1165L33.0406 81.1166C33.0742 81.2632 33.1003 81.3821 33.1153 81.4796C33.1245 81.5392 33.1281 81.5822 33.1286 81.6126C33.1162 81.6113 33.101 81.6091 33.0827 81.6057C32.9037 81.5723 32.5972 81.4544 32.0905 81.2194C31.5919 80.9881 30.9243 80.6555 30.0343 80.2103C29.0385 79.712 28.1024 79.2082 27.3972 78.7986C27.0443 78.5936 26.7518 78.4137 26.5395 78.2709C26.4331 78.1993 26.3501 78.1392 26.2907 78.0913C26.2872 78.0885 26.2838 78.0858 26.2806 78.0832C26.2924 78.0663 26.3069 78.0467 26.3246 78.0243C26.4219 77.9012 26.5812 77.7358 26.7921 77.5387C27.2115 77.1467 27.8068 76.6555 28.4407 76.1709C29.0743 75.6867 29.7409 75.2133 30.3016 74.8567C30.5822 74.6781 30.8328 74.531 31.0375 74.4267C31.1681 74.3601 31.2685 74.3171 31.3404 74.2922C31.3484 74.3072 31.3572 74.3246 31.3669 74.3446C31.4299 74.4755 31.5068 74.676 31.592 74.9359C31.7615 75.4531 31.9544 76.1765 32.1288 76.9797C32.4801 78.5977 32.8903 80.4595 33.0406 81.1165ZM26.2369 78.1596C26.2367 78.1598 26.2373 78.1575 26.2395 78.1522C26.2383 78.1569 26.2372 78.1595 26.2369 78.1596ZM131.401 76.0495C132.168 76.5551 132.828 77.0629 133.274 77.4713C133.499 77.6768 133.66 77.8496 133.755 77.979C133.782 78.0167 133.801 78.0467 133.814 78.0696C133.809 78.0743 133.803 78.0793 133.797 78.0846C133.785 78.0955 133.772 78.1074 133.756 78.1204C133.691 78.175 133.601 78.2408 133.489 78.3168C133.266 78.4686 132.964 78.6521 132.609 78.8549C131.9 79.26 130.99 79.7346 130.092 80.1748C129.193 80.6152 128.31 81.0187 127.653 81.2828C127.346 81.4066 127.095 81.4967 126.919 81.5463C126.929 81.4794 126.943 81.3998 126.959 81.3074C127.006 81.0511 127.073 80.7197 127.155 80.3389C127.319 79.5776 127.541 78.625 127.769 77.6929C127.997 76.7606 128.231 75.851 128.418 75.1755C128.512 74.8372 128.594 74.5607 128.657 74.3702C128.662 74.3533 128.668 74.3373 128.673 74.3221C128.687 74.33 128.701 74.3385 128.717 74.3473C128.877 74.4396 129.099 74.5743 129.369 74.742C129.908 75.0771 130.629 75.5399 131.401 76.0495ZM133.856 78.0241L133.856 78.0243L133.856 78.0241Z" fill="#522C29" stroke="#522C29" stroke-width="0.5"/>
</svg>
