<svg width="360" height="827" viewBox="0 0 360 827" fill="none" xmlns="http://www.w3.org/2000/svg">
<path d="M178 15.5503C322.5 49.0003 369 15.5503 369 15.5503V555.788C304.8 555.788 265.674 530.564 180.122 555.788C94.5701 581.013 57.5023 555.788 -13 555.788V15.5503C-13 15.5503 33.5 -17.8997 178 15.5503Z" fill="#F4940D"/>
<path d="M178 15.5503C322.5 49.0003 369 15.5503 369 15.5503V555.788C304.8 555.788 265.674 530.564 180.122 555.788C94.5701 581.013 57.5023 555.788 -13 555.788V15.5503C-13 15.5503 33.5 -17.8997 178 15.5503Z" fill="url(#paint0_linear_920_2284)" fill-opacity="0.2"/>
<path fill-rule="evenodd" clip-rule="evenodd" d="M-31.955 584.752C-31.9226 633.04 -12.7927 622.321 3.87917 648.93C8.58254 656.431 9.07013 664.224 9.16315 733.305C9.25016 797.138 9.4842 803.522 11.9792 810.197C13.4764 814.201 16.0749 819.224 17.7522 821.36C25.4067 831.106 37.6699 827.752 41.3576 814.905C45.1293 801.772 42.9854 769.598 34.6499 714.195C33.2561 704.937 32.0364 688.148 31.9389 676.887C31.7843 659.044 32.1159 655.856 34.5119 652.088C37.5514 647.311 41.9907 645.869 48.2964 647.611C56.0033 649.74 59.2214 655.496 64.0088 675.703C67.6635 691.132 71.3797 698.9 77.5969 704.106C84.9767 710.284 96.7269 712.347 102.673 708.508C109.538 704.075 110.249 696.416 106.675 665.348C102.814 631.771 106.945 621.379 124.161 621.379C130.539 621.379 136.196 623.764 141.149 628.545C145.598 632.839 148.318 637.952 155.472 655.464C158.711 663.391 162.94 671.762 164.871 674.064C175.173 686.35 197.45 681.174 209.438 663.708C218.116 651.064 223.407 647.768 235.021 647.768C243.316 647.768 248.911 651.134 252.571 658.325C255.035 663.163 255.303 667.547 255.303 702.821C255.303 738.584 255.533 742.203 257.968 744.907C261.201 748.496 266.851 748.915 270.2 745.815C275.232 741.158 276.037 731.485 274.012 700.065C272.049 669.651 272.422 658.838 275.614 653.436C278.945 647.8 286.574 647.672 291.264 653.172C294.62 657.109 296.525 669.883 296.633 689.171C296.729 706.341 298.102 712.256 302.178 713.063C306.428 713.906 308.503 706.289 312.299 675.896C316.77 640.116 322.51 626.128 333.402 624.47C343.953 622.864 351.15 631.024 361.259 656.055C371.498 681.411 377.948 688.158 388.9 684.974C395.048 683.187 396.775 680.409 397.897 670.493C399.659 654.934 403.475 650.498 415.1 650.498C420.901 650.498 421.411 650.719 424.04 654.365C430.047 662.705 430.807 670.42 430.387 718.745C430.165 744.274 430.639 768.463 431.456 773.169C433.737 786.344 440.43 792.426 445.762 786.172C450.65 780.439 451.459 766.752 449.447 723.837C446.95 670.605 448.826 657.472 459.269 655.064C467.978 653.055 472.779 656.339 482.648 671.051C490.525 682.791 495.07 687.317 501.75 690.07C508.556 692.876 517.004 693.116 520.742 690.61C524.257 688.254 524.083 681.562 520.076 665.02C515.443 645.899 517.938 638.444 529.997 635.388C541.887 632.376 544.962 635.48 544.062 649.588C542.773 669.773 543.234 674.833 546.609 677.577C552.384 682.274 560.46 681.456 564.568 675.757C567.099 672.245 567.37 669.065 567.462 641.853C567.552 615.154 567.852 611.49 570.173 608.811C683.904 477.567 558.333 514.912 282.896 514.912H-32L-31.955 584.752ZM569.045 603.407C561.327 607.915 559.131 611.775 559.119 620.848C559.108 628.257 558.084 628.247 556.058 620.82C554.058 613.484 556.414 606.774 562.227 603.248C566.043 600.934 567.993 600.365 574.515 599.663C575.148 599.595 572.686 601.279 569.045 603.407ZM325.605 621.726C317.547 626.736 315.733 628.517 312.416 634.693L308.568 641.853L309.408 635.938C310.779 626.276 317.892 618.894 328.067 616.576C334.697 615.064 334.011 616.501 325.605 621.726ZM224.548 644.658C220.834 645.94 215.947 648.054 213.686 649.358C209.069 652.023 206.906 651.669 209.543 648.68C211.276 646.716 224.762 642.323 229.048 642.328C230.286 642.329 228.261 643.378 224.548 644.658ZM169.702 660.702C172.366 666.867 179.674 675.067 182.507 675.067C183.35 675.067 184.04 675.476 184.04 675.977C184.04 677.285 180.061 677.097 175.149 675.556C169.574 673.807 166.217 668.55 165.066 659.765C163.974 651.419 165.857 651.801 169.702 660.702ZM373.776 663.802C377.902 673.092 381.376 678.48 384.71 680.754C386.725 682.13 386.74 682.346 384.821 682.346C378.863 682.346 372.319 673.988 370.741 664.362C370.27 661.491 369.535 658.12 369.107 656.869C367.335 651.684 370.447 656.306 373.776 663.802ZM552.329 674.149C553.379 676.112 553.235 676.263 551.262 675.27C550.008 674.639 548.123 672.263 547.075 669.992C545.511 666.603 545.535 664.932 547.214 660.682L549.258 655.502L550.188 663.692C550.698 668.196 551.662 672.902 552.329 674.149ZM81.0955 694.009C83.613 698.193 88.6779 703.017 92.4676 704.839C93.9619 705.558 94.1329 705.958 92.9507 705.977C89.8586 706.026 80.5059 700.456 77.3208 696.669C73.3105 691.901 70.0504 682.282 70.154 675.522L70.238 670.062L74.4853 680.072C76.8212 685.577 79.7963 691.848 81.0955 694.009ZM503.046 685.256C504.623 686.106 507.586 687.206 509.632 687.701C513.299 688.588 513.285 688.602 508.678 688.659C502.02 688.741 496.766 685.809 493.192 680.017C488.247 672 489.509 670.283 495.138 677.367C497.912 680.857 501.469 684.407 503.046 685.256ZM264.797 740.911C266.351 744.309 266.312 744.374 263.598 742.884C259.014 740.367 257.021 733.156 258.113 723.039C258.652 718.059 259.59 713.52 260.199 712.952C260.806 712.385 261.729 717.653 262.247 724.66C262.766 731.667 263.913 738.98 264.797 740.911ZM21.9245 803.372C22.8787 810.129 24.0054 816.681 24.4285 817.932C25.0841 819.863 24.9491 819.968 23.5448 818.631C20.4077 815.641 16.0269 801.058 14.2281 787.61C12.8193 777.073 12.8238 770.704 14.2476 758.491C15.2498 749.893 16.5625 741.836 17.1641 740.585C17.7672 739.333 18.6944 750.185 19.2255 764.699C19.7566 779.213 20.9718 796.616 21.9245 803.372ZM440.459 778.905C442.18 783.551 441.371 784.718 439.021 780.977C436.103 776.328 434.587 769.654 434.587 761.464C434.587 748.375 436.744 749.078 437.917 762.55C438.511 769.376 439.655 776.736 440.459 778.905Z" fill="#F4940D"/>
<path fill-rule="evenodd" clip-rule="evenodd" d="M-31.955 584.752C-31.9226 633.04 -12.7927 622.321 3.87917 648.93C8.58254 656.431 9.07013 664.224 9.16315 733.305C9.25016 797.138 9.4842 803.522 11.9792 810.197C13.4764 814.201 16.0749 819.224 17.7522 821.36C25.4067 831.106 37.6699 827.752 41.3576 814.905C45.1293 801.772 42.9854 769.598 34.6499 714.195C33.2561 704.937 32.0364 688.148 31.9389 676.887C31.7843 659.044 32.1159 655.856 34.5119 652.088C37.5514 647.311 41.9907 645.869 48.2964 647.611C56.0033 649.74 59.2214 655.496 64.0088 675.703C67.6635 691.132 71.3797 698.9 77.5969 704.106C84.9767 710.284 96.7269 712.347 102.673 708.508C109.538 704.075 110.249 696.416 106.675 665.348C102.814 631.771 106.945 621.379 124.161 621.379C130.539 621.379 136.196 623.764 141.149 628.545C145.598 632.839 148.318 637.952 155.472 655.464C158.711 663.391 162.94 671.762 164.871 674.064C175.173 686.35 197.45 681.174 209.438 663.708C218.116 651.064 223.407 647.768 235.021 647.768C243.316 647.768 248.911 651.134 252.571 658.325C255.035 663.163 255.303 667.547 255.303 702.821C255.303 738.584 255.533 742.203 257.968 744.907C261.201 748.496 266.851 748.915 270.2 745.815C275.232 741.158 276.037 731.485 274.012 700.065C272.049 669.651 272.422 658.838 275.614 653.436C278.945 647.8 286.574 647.672 291.264 653.172C294.62 657.109 296.525 669.883 296.633 689.171C296.729 706.341 298.102 712.256 302.178 713.063C306.428 713.906 308.503 706.289 312.299 675.896C316.77 640.116 322.51 626.128 333.402 624.47C343.953 622.864 351.15 631.024 361.259 656.055C371.498 681.411 377.948 688.158 388.9 684.974C395.048 683.187 396.775 680.409 397.897 670.493C399.659 654.934 403.475 650.498 415.1 650.498C420.901 650.498 421.411 650.719 424.04 654.365C430.047 662.705 430.807 670.42 430.387 718.745C430.165 744.274 430.639 768.463 431.456 773.169C433.737 786.344 440.43 792.426 445.762 786.172C450.65 780.439 451.459 766.752 449.447 723.837C446.95 670.605 448.826 657.472 459.269 655.064C467.978 653.055 472.779 656.339 482.648 671.051C490.525 682.791 495.07 687.317 501.75 690.07C508.556 692.876 517.004 693.116 520.742 690.61C524.257 688.254 524.083 681.562 520.076 665.02C515.443 645.899 517.938 638.444 529.997 635.388C541.887 632.376 544.962 635.48 544.062 649.588C542.773 669.773 543.234 674.833 546.609 677.577C552.384 682.274 560.46 681.456 564.568 675.757C567.099 672.245 567.37 669.065 567.462 641.853C567.552 615.154 567.852 611.49 570.173 608.811C683.904 477.567 558.333 514.912 282.896 514.912H-32L-31.955 584.752ZM569.045 603.407C561.327 607.915 559.131 611.775 559.119 620.848C559.108 628.257 558.084 628.247 556.058 620.82C554.058 613.484 556.414 606.774 562.227 603.248C566.043 600.934 567.993 600.365 574.515 599.663C575.148 599.595 572.686 601.279 569.045 603.407ZM325.605 621.726C317.547 626.736 315.733 628.517 312.416 634.693L308.568 641.853L309.408 635.938C310.779 626.276 317.892 618.894 328.067 616.576C334.697 615.064 334.011 616.501 325.605 621.726ZM224.548 644.658C220.834 645.94 215.947 648.054 213.686 649.358C209.069 652.023 206.906 651.669 209.543 648.68C211.276 646.716 224.762 642.323 229.048 642.328C230.286 642.329 228.261 643.378 224.548 644.658ZM169.702 660.702C172.366 666.867 179.674 675.067 182.507 675.067C183.35 675.067 184.04 675.476 184.04 675.977C184.04 677.285 180.061 677.097 175.149 675.556C169.574 673.807 166.217 668.55 165.066 659.765C163.974 651.419 165.857 651.801 169.702 660.702ZM373.776 663.802C377.902 673.092 381.376 678.48 384.71 680.754C386.725 682.13 386.74 682.346 384.821 682.346C378.863 682.346 372.319 673.988 370.741 664.362C370.27 661.491 369.535 658.12 369.107 656.869C367.335 651.684 370.447 656.306 373.776 663.802ZM552.329 674.149C553.379 676.112 553.235 676.263 551.262 675.27C550.008 674.639 548.123 672.263 547.075 669.992C545.511 666.603 545.535 664.932 547.214 660.682L549.258 655.502L550.188 663.692C550.698 668.196 551.662 672.902 552.329 674.149ZM81.0955 694.009C83.613 698.193 88.6779 703.017 92.4676 704.839C93.9619 705.558 94.1329 705.958 92.9507 705.977C89.8586 706.026 80.5059 700.456 77.3208 696.669C73.3105 691.901 70.0504 682.282 70.154 675.522L70.238 670.062L74.4853 680.072C76.8212 685.577 79.7963 691.848 81.0955 694.009ZM503.046 685.256C504.623 686.106 507.586 687.206 509.632 687.701C513.299 688.588 513.285 688.602 508.678 688.659C502.02 688.741 496.766 685.809 493.192 680.017C488.247 672 489.509 670.283 495.138 677.367C497.912 680.857 501.469 684.407 503.046 685.256ZM264.797 740.911C266.351 744.309 266.312 744.374 263.598 742.884C259.014 740.367 257.021 733.156 258.113 723.039C258.652 718.059 259.59 713.52 260.199 712.952C260.806 712.385 261.729 717.653 262.247 724.66C262.766 731.667 263.913 738.98 264.797 740.911ZM21.9245 803.372C22.8787 810.129 24.0054 816.681 24.4285 817.932C25.0841 819.863 24.9491 819.968 23.5448 818.631C20.4077 815.641 16.0269 801.058 14.2281 787.61C12.8193 777.073 12.8238 770.704 14.2476 758.491C15.2498 749.893 16.5625 741.836 17.1641 740.585C17.7672 739.333 18.6944 750.185 19.2255 764.699C19.7566 779.213 20.9718 796.616 21.9245 803.372ZM440.459 778.905C442.18 783.551 441.371 784.718 439.021 780.977C436.103 776.328 434.587 769.654 434.587 761.464C434.587 748.375 436.744 749.078 437.917 762.55C438.511 769.376 439.655 776.736 440.459 778.905Z" fill="url(#paint1_linear_920_2284)" fill-opacity="0.2"/>
<defs>
<linearGradient id="paint0_linear_920_2284" x1="290" y1="40.8764" x2="419.813" y2="975.582" gradientUnits="userSpaceOnUse">
<stop stop-color="#D1C0BE" stop-opacity="0"/>
<stop offset="0.627213" stop-color="#2A100E"/>
<stop offset="1" stop-color="#1B0605"/>
</linearGradient>
<linearGradient id="paint1_linear_920_2284" x1="290" y1="40.8764" x2="419.813" y2="975.582" gradientUnits="userSpaceOnUse">
<stop stop-color="#D1C0BE" stop-opacity="0"/>
<stop offset="0.627213" stop-color="#2A100E"/>
<stop offset="1" stop-color="#1B0605"/>
</linearGradient>
</defs>
</svg>
