<svg width="264" height="60" viewBox="0 0 264 60" fill="none" xmlns="http://www.w3.org/2000/svg">
<path d="M60.8832 39.2683C58.3306 39.2683 56.3785 38.4935 55.0271 36.9438C53.6757 35.3789 53 33.2462 53 30.5459C53 28.7661 53.3529 27.2165 54.0586 25.897C54.7794 24.5622 55.7629 23.5342 57.0092 22.8131C58.2555 22.092 59.667 21.7314 61.2436 21.7314C61.9043 21.7314 62.5425 21.7775 63.1581 21.8695C63.7738 21.9462 64.502 22.0536 65.3429 22.1917C65.9736 22.2991 66.3189 22.3528 66.379 22.3528L66.1312 27.0938H64.0591L63.3608 23.8027C63.1957 23.634 62.9104 23.4959 62.5049 23.3885C62.0995 23.2811 61.5815 23.2274 60.9508 23.2274C59.6745 23.2274 58.6459 23.8334 57.8651 25.0455C57.0993 26.2422 56.7164 27.9836 56.7164 30.2697C56.7164 32.4791 57.0843 34.2819 57.82 35.6781C58.5558 37.0742 59.6294 37.7723 61.0409 37.7723C61.7166 37.7723 62.2347 37.711 62.595 37.5882C62.9704 37.4501 63.2858 37.2584 63.541 37.0129L64.5321 34.6424L66.424 34.8265L65.9736 38.3937C65.6582 38.4244 65.3429 38.4858 65.0276 38.5778C64.7273 38.6546 64.5396 38.7006 64.4645 38.7159C63.8639 38.8847 63.3008 39.0151 62.7752 39.1072C62.2647 39.2146 61.634 39.2683 60.8832 39.2683Z" fill="#69332B"/>
<path d="M69.8297 23.6416L68.0728 23.3424V21.9156H71.4289C71.9394 21.9156 72.6001 21.8849 73.4109 21.8235C73.6061 21.8082 73.8389 21.7928 74.1092 21.7775C74.3794 21.7621 74.6948 21.7545 75.0551 21.7545C77.3225 21.7545 78.9067 22.0843 79.8076 22.7441C80.7236 23.3885 81.1816 24.3551 81.1816 25.6439C81.1816 26.7792 80.8437 27.7305 80.168 28.4976C79.5073 29.2494 78.6364 29.7097 77.5553 29.8785C79.0418 29.8631 80.2055 30.2083 81.0464 30.9141C81.9023 31.6199 82.3303 32.6018 82.3303 33.8599C82.3303 35.4556 81.7822 36.7367 80.686 37.7033C79.5899 38.6699 77.758 39.1532 75.1903 39.1532C74.5146 39.1532 73.8914 39.1302 73.3208 39.0842C73.1707 39.0842 72.9154 39.0688 72.555 39.0381C72.1947 39.0228 71.8268 39.0151 71.4514 39.0151H68.0503V37.6343L69.8297 37.4041V23.6416ZM73.0956 29.3722C73.2608 29.3875 73.5986 29.3952 74.1092 29.3952H75.1678C76.0837 29.3952 76.7669 29.1037 77.2174 28.5206C77.6679 27.9376 77.8931 27.1168 77.8931 26.0581C77.8931 25.0455 77.6604 24.309 77.1949 23.8488C76.7294 23.3885 75.9561 23.1583 74.875 23.1583C74.5897 23.1583 73.9965 23.189 73.0956 23.2504V29.3722ZM73.0956 37.4962C73.441 37.6343 74.1017 37.7033 75.0777 37.7033C76.354 37.7033 77.2775 37.3964 77.8481 36.7827C78.4187 36.169 78.704 35.2791 78.704 34.1131C78.704 32.9931 78.4412 32.1952 77.9156 31.7196C77.4051 31.2286 76.5868 30.9832 75.4606 30.9832C74.1993 30.9832 73.4109 30.9985 73.0956 31.0292V37.4962Z" fill="#69332B"/>
<path d="M85.7106 23.6416L84.0213 23.3424V21.9156H87.3097C87.8053 21.9156 88.4734 21.8849 89.3143 21.8235C89.5095 21.8082 89.8023 21.7928 90.1927 21.7775C90.5982 21.7621 90.9585 21.7545 91.2739 21.7545C94.0368 21.7545 96.1014 22.4602 97.4679 23.8718C98.8493 25.2833 99.54 27.2855 99.54 29.8785C99.54 31.6889 99.1947 33.2999 98.5039 34.7115C97.8282 36.123 96.8597 37.2277 95.5984 38.0255C94.3371 38.808 92.8655 39.1992 91.1838 39.1992C90.7483 39.1992 90.0651 39.1685 89.1341 39.1072C88.2632 39.0458 87.6701 39.0151 87.3548 39.0151H83.9312V37.6343L85.7106 37.4041V23.6416ZM88.9765 37.4732C89.487 37.6112 90.2003 37.6803 91.1162 37.6803C92.6178 37.6496 93.7965 37.0359 94.6524 35.8392C95.5083 34.6271 95.9363 32.8166 95.9363 30.4078C95.9363 28.1217 95.5158 26.3573 94.6749 25.1145C93.8341 23.8564 92.5277 23.2274 90.7558 23.2274C90.3804 23.2274 90.0201 23.2504 89.6747 23.2964C89.3444 23.3424 89.1116 23.3731 88.9765 23.3885V37.4732Z" fill="#69332B"/>
<path fillRule="evenodd" clipRule="evenodd" d="M125.055 42.6629C125.335 42.8032 125.616 42.8032 125.896 42.7331C126.528 42.3823 126.458 40.8389 126.317 40.2776C126.177 39.4358 125.686 38.6641 125.055 37.9625C124.213 38.6641 123.862 39.3656 123.862 40.3478C123.862 40.9792 124.283 42.242 125.055 42.6629ZM131.088 52.8353L129.334 51.5024L129.264 51.4322C128.983 51.0814 129.404 50.4501 129.825 50.8008C130.667 51.1516 131.298 51.3621 131.93 51.3621C132.561 51.3621 133.122 51.1516 134.034 50.8008C134.455 50.4501 134.876 51.0814 134.596 51.4322L134.525 51.5024L132.772 52.8353C132.07 53.3965 132.21 54.94 133.333 54.94C133.684 54.94 134.525 54.8698 134.806 54.5892C135.087 54.3086 135.367 54.4489 135.508 54.5892C135.578 54.6593 135.578 54.8698 135.367 55.0803C134.876 55.5713 133.964 55.7818 133.333 55.7818H130.597C129.965 55.7818 129.053 55.5713 128.562 55.0803C128.352 54.8698 128.282 54.6593 128.422 54.5892C128.562 54.4489 128.843 54.3086 129.124 54.5892C129.404 54.8698 130.246 54.94 130.597 54.94C131.649 54.94 131.789 53.3965 131.088 52.8353ZM137.963 42.7331C137.262 42.3823 137.402 40.8389 137.542 40.2776C137.682 39.4358 138.174 38.6641 138.805 37.9625C139.647 38.6641 139.998 39.3656 139.998 40.3478C139.998 40.9792 139.577 42.242 138.805 42.6629C138.594 42.8032 138.314 42.8032 137.963 42.7331ZM140.699 35.7878C140.699 36.349 140.559 36.8401 140.278 37.261C140.629 37.6118 141.05 38.1029 141.19 38.6641C141.401 39.5761 141.33 40.418 141.26 40.8389C143.365 45.1885 146.171 51.0113 142.102 55.1504C141.471 55.7818 140.629 56.343 139.717 56.6237C139.647 56.6237 139.577 56.6938 139.577 56.6938C138.805 56.9043 138.033 57.0446 137.121 57.1147C136.35 58.0268 135.227 58.7283 134.105 59.1492C133.403 59.3597 132.701 59.5 132.07 59.5H131.93C131.228 59.5 130.527 59.3597 129.895 59.1492C128.773 58.7283 127.65 58.0268 126.879 57.1147C125.967 57.1147 125.055 56.9744 124.283 56.6938C123.301 56.343 122.529 55.852 121.828 55.1504C117.829 51.0113 120.565 45.1885 122.669 40.8389C122.599 40.418 122.529 39.5761 122.74 38.6641C122.88 38.1029 123.301 37.6118 123.652 37.261C123.371 36.8401 123.231 36.349 123.231 35.7878C123.231 35.6474 123.231 35.5773 123.301 35.437C123.371 35.1564 123.511 34.8757 123.652 34.5951C123.862 34.104 124.072 33.6831 124.002 33.2622C124.002 33.1219 124.002 33.0517 123.932 32.9114C122.81 31.9994 121.056 30.456 119.863 28.2111C120.284 28.3514 121.196 28.7021 121.757 28.8425C121.757 28.8425 121.757 28.8424 121.687 28.7723C121.757 28.7723 121.898 28.8425 121.968 28.8425C121.968 28.8425 118.671 26.0363 117.197 21.5464C117.478 21.7568 118.109 22.1778 118.811 22.2479C118.811 22.2479 118.811 22.2479 118.811 22.1778C118.881 22.1778 118.951 22.1778 119.021 22.2479C119.021 22.2479 115.794 18.9507 115.093 14.2503C115.443 14.8115 116.005 15.7235 116.355 16.0042C116.355 16.0042 116.215 15.7937 116.075 15.4429C116.285 15.7235 116.426 15.934 116.566 16.0042C116.566 16.0042 114.461 12.1457 114.531 9.47978C114.742 9.90071 115.163 10.5321 115.654 10.953C115.654 10.953 115.514 10.8127 115.373 10.5321C115.514 10.6724 115.654 10.8829 115.794 10.953C115.794 10.953 114.531 9.19917 114.812 5.83175C115.023 4.00773 114.531 1.62247 114.181 0.5C114.812 1.55232 116.145 3.51665 117.548 4.77943C120.214 6.88407 120.565 9.12901 120.565 9.12901C120.635 8.91855 120.635 8.77824 120.565 8.56778C120.705 8.91855 120.705 9.12901 120.705 9.12901C120.845 8.49762 120.565 7.72592 120.424 7.30499C122.459 9.19917 124.002 13.4084 124.002 13.4084C124.072 13.2681 124.072 13.1278 124.002 12.9174C124.143 13.198 124.213 13.4084 124.213 13.4084C124.353 12.9875 124.002 11.865 123.792 11.2337C126.668 15.0922 126.949 19.4417 126.949 19.4417C127.019 19.3716 127.089 19.3014 127.159 19.2313C127.159 19.3716 127.159 19.4417 127.159 19.4417C127.58 19.0208 127.72 18.3193 127.72 17.8983C129.825 22.1778 129.615 26.1064 129.615 26.1064C129.685 26.0363 129.755 25.896 129.825 25.7556C129.825 25.9661 129.825 26.1064 129.825 26.1064C130.106 25.6153 130.527 24.8436 130.737 24.4227C131.579 27.0886 131.369 29.4037 131.088 30.6665C131.158 30.6665 131.228 30.6665 131.298 30.6665C131.509 30.6665 131.649 30.6665 131.86 30.6665C131.93 30.6665 131.93 30.6665 132 30.6665C132.281 30.6665 132.491 30.6665 132.701 30.6665C132.772 30.6665 132.842 30.6665 132.912 30.6665C132.631 29.4037 132.421 27.0886 133.263 24.4227C133.473 24.8436 133.894 25.6153 134.175 26.1064C134.175 26.1064 134.175 25.9661 134.175 25.7556C134.245 25.896 134.315 25.9661 134.385 26.1064C134.385 26.1064 134.175 22.1778 136.279 17.8983C136.279 18.3193 136.42 19.0208 136.841 19.4417C136.841 19.4417 136.841 19.3716 136.841 19.2313C136.911 19.3014 136.981 19.3716 137.051 19.4417C137.051 19.4417 137.332 15.0922 140.208 11.2337C139.998 11.865 139.647 12.9875 139.787 13.4084C139.787 13.4084 139.857 13.2681 139.998 12.9174C139.998 13.1278 139.998 13.2681 139.998 13.4084C139.998 13.4084 141.541 9.19917 143.575 7.30499C143.435 7.72592 143.225 8.49762 143.295 9.12901C143.295 9.12901 143.365 8.91855 143.435 8.56778C143.435 8.77824 143.435 8.9887 143.435 9.12901C143.435 9.12901 143.786 6.88407 146.452 4.77943C147.855 3.51665 149.188 1.48216 149.819 0.5C149.539 1.62247 148.977 3.93757 149.188 5.83175C149.468 9.12901 148.206 10.953 148.206 10.953C148.346 10.8127 148.486 10.6724 148.627 10.5321C148.486 10.8127 148.346 10.953 148.346 10.953C148.837 10.6023 149.258 9.90071 149.468 9.47978C149.539 12.1457 147.434 16.0042 147.434 16.0042C147.574 15.934 147.715 15.6534 147.925 15.4429C147.715 15.7937 147.644 16.0042 147.644 16.0042C147.995 15.7235 148.556 14.8115 148.907 14.2503C148.276 18.9507 144.979 22.2479 144.979 22.2479C145.049 22.2479 145.119 22.2479 145.189 22.1778V22.2479C145.961 22.1778 146.522 21.827 146.803 21.5464C145.329 26.1064 142.032 28.8425 142.032 28.8425C142.102 28.8425 142.243 28.7723 142.313 28.7723C142.243 28.8424 142.242 28.8425 142.242 28.8425C142.734 28.7021 143.716 28.4215 144.137 28.2111C142.874 30.456 141.19 32.0696 140.068 32.9114C139.998 33.0517 139.998 33.1219 139.998 33.2622C139.927 33.6831 140.138 34.104 140.348 34.5951C140.489 34.8757 140.629 35.1564 140.699 35.437C140.699 35.5071 140.699 35.6474 140.699 35.7878Z" fill="white"/>
<path d="M131.088 52.8353L129.334 51.5024L129.264 51.4322C128.983 51.0814 129.404 50.4501 129.825 50.8008C130.667 51.1516 131.298 51.3621 131.93 51.3621C132.561 51.3621 133.122 51.1516 134.034 50.8008C134.455 50.4501 134.876 51.0814 134.596 51.4322L134.525 51.5024L132.772 52.8353C132.07 53.3965 132.21 54.94 133.333 54.94C133.684 54.94 134.525 54.8698 134.806 54.5892C135.087 54.3086 135.367 54.4489 135.508 54.5892C135.578 54.6593 135.578 54.8698 135.367 55.0803C134.876 55.5713 133.964 55.7818 133.333 55.7818H130.597C129.965 55.7818 129.053 55.5713 128.562 55.0803C128.352 54.8698 128.282 54.6593 128.422 54.5892C128.562 54.4489 128.843 54.3086 129.124 54.5892C129.404 54.8698 130.246 54.94 130.597 54.94C131.649 54.94 131.789 53.3965 131.088 52.8353Z" fill="#69332B"/>
<path d="M137.963 42.7331C137.262 42.3823 137.402 40.8389 137.542 40.2776C137.682 39.4358 138.174 38.6641 138.805 37.9625C139.647 38.6641 139.998 39.3656 139.998 40.3478C139.998 40.9792 139.577 42.242 138.805 42.6629C138.594 42.8032 138.314 42.8032 137.963 42.7331Z" fill="#69332B"/>
<path d="M125.055 42.6629C125.335 42.8032 125.616 42.8032 125.896 42.7331C126.528 42.3823 126.458 40.8389 126.317 40.2776C126.177 39.4358 125.686 38.6641 125.055 37.9625C124.213 38.6641 123.862 39.3656 123.862 40.3478C123.862 40.9792 124.283 42.242 125.055 42.6629Z" fill="#69332B"/>
<path d="M164.455 36.9591L166.247 36.736V23.3978L164.546 23.0856V21.725H167.835C168.122 21.725 168.44 21.7175 168.788 21.7027C169.136 21.6878 169.4 21.6729 169.582 21.6581C170.368 21.5986 171.018 21.5688 171.533 21.5688C173.09 21.5688 174.338 21.725 175.275 22.0372C176.213 22.3495 176.894 22.8253 177.317 23.4647C177.741 24.1041 177.952 24.9443 177.952 25.9852C177.952 27.0112 177.672 27.9629 177.113 28.8402C176.553 29.7175 175.744 30.3197 174.686 30.6468C175.291 30.8996 175.827 31.3606 176.296 32.0297C176.765 32.6989 177.264 33.5688 177.793 34.6394C178.172 35.368 178.459 35.8959 178.655 36.223C178.867 36.5353 179.071 36.7137 179.268 36.7583L180.017 36.9814V38.2974H176.16C175.918 38.2974 175.661 38.0594 175.389 37.5836C175.132 37.0929 174.792 36.3271 174.368 35.2862C173.869 34.0669 173.438 33.1152 173.075 32.4312C172.712 31.7472 172.327 31.3234 171.918 31.1599H169.582V36.736L171.669 36.9591V38.2974H164.455V36.9591ZM171.669 29.7993C172.531 29.7993 173.204 29.4944 173.688 28.8848C174.172 28.2751 174.413 27.3606 174.413 26.1413C174.413 25.0558 174.172 24.2528 173.688 23.7324C173.219 23.212 172.402 22.9517 171.238 22.9517C170.814 22.9517 170.451 22.974 170.149 23.0187C169.862 23.0484 169.672 23.0633 169.582 23.0633V29.7547C169.763 29.7844 170.202 29.7993 170.897 29.7993H171.669Z" fill="#69332B"/>
<path d="M186.112 21.6358H189.583L194.823 36.736L196.138 36.9591V38.2974H189.446V36.9591L191.148 36.736L190.263 33.8364H184.388L183.503 36.7583L185.341 36.9591V38.2974H179.556L179.533 36.9591L180.894 36.736L186.112 21.6358ZM187.677 25.4053L187.269 23.6655L186.838 25.4276L184.819 32.2751H189.809L187.677 25.4053Z" fill="#69332B"/>
<path d="M198.524 23.3978L196.754 23.1079V21.725H200.134C200.648 21.725 201.314 21.6952 202.13 21.6358C202.327 21.6209 202.561 21.606 202.834 21.5912C203.106 21.5763 203.423 21.5688 203.786 21.5688C206.07 21.5688 207.665 21.8885 208.573 22.5279C209.495 23.1525 209.956 24.0893 209.956 25.3383C209.956 26.4387 209.616 27.3606 208.936 28.1041C208.27 28.8327 207.393 29.2788 206.304 29.4424C207.801 29.4275 208.973 29.7621 209.82 30.4461C210.682 31.1301 211.113 32.0818 211.113 33.3011C211.113 34.8476 210.561 36.0892 209.457 37.026C208.353 37.9628 206.508 38.4312 203.922 38.4312C203.242 38.4312 202.614 38.4089 202.04 38.3643C201.888 38.3643 201.631 38.3494 201.268 38.3197C200.905 38.3048 200.535 38.2974 200.157 38.2974H196.731V36.9591L198.524 36.736V23.3978ZM201.813 28.9517C201.979 28.9666 202.319 28.974 202.834 28.974H203.9C204.822 28.974 205.51 28.6915 205.964 28.1264C206.418 27.5614 206.645 26.7658 206.645 25.7398C206.645 24.7584 206.41 24.0447 205.941 23.5986C205.473 23.1525 204.694 22.9294 203.605 22.9294C203.318 22.9294 202.72 22.9592 201.813 23.0187V28.9517ZM201.813 36.8252C202.161 36.9591 202.826 37.026 203.809 37.026C205.094 37.026 206.025 36.7286 206.599 36.1338C207.174 35.539 207.461 34.6766 207.461 33.5465C207.461 32.461 207.197 31.6877 206.667 31.2268C206.153 30.7509 205.329 30.513 204.195 30.513C202.924 30.513 202.13 30.5279 201.813 30.5576V36.8252Z" fill="#69332B"/>
<path d="M214.518 23.3978L212.748 23.1079V21.725H216.128C216.643 21.725 217.308 21.6952 218.125 21.6358C218.321 21.6209 218.556 21.606 218.828 21.5912C219.1 21.5763 219.418 21.5688 219.781 21.5688C222.064 21.5688 223.66 21.8885 224.567 22.5279C225.489 23.1525 225.951 24.0893 225.951 25.3383C225.951 26.4387 225.61 27.3606 224.93 28.1041C224.264 28.8327 223.387 29.2788 222.298 29.4424C223.796 29.4275 224.968 29.7621 225.815 30.4461C226.677 31.1301 227.108 32.0818 227.108 33.3011C227.108 34.8476 226.556 36.0892 225.452 37.026C224.348 37.9628 222.503 38.4312 219.917 38.4312C219.236 38.4312 218.609 38.4089 218.034 38.3643C217.883 38.3643 217.626 38.3494 217.263 38.3197C216.9 38.3048 216.529 38.2974 216.151 38.2974H212.726V36.9591L214.518 36.736V23.3978ZM217.807 28.9517C217.973 28.9666 218.314 28.974 218.828 28.974H219.894C220.816 28.974 221.505 28.6915 221.958 28.1264C222.412 27.5614 222.639 26.7658 222.639 25.7398C222.639 24.7584 222.404 24.0447 221.936 23.5986C221.467 23.1525 220.688 22.9294 219.599 22.9294C219.312 22.9294 218.714 22.9592 217.807 23.0187V28.9517ZM217.807 36.8252C218.155 36.9591 218.82 37.026 219.803 37.026C221.089 37.026 222.019 36.7286 222.593 36.1338C223.168 35.539 223.455 34.6766 223.455 33.5465C223.455 32.461 223.191 31.6877 222.661 31.2268C222.147 30.7509 221.323 30.513 220.189 30.513C218.919 30.513 218.125 30.5279 217.807 30.5576V36.8252Z" fill="#69332B"/>
<path d="M230.807 23.3978L228.879 23.1079V21.725H236.138V23.1079L234.141 23.3978V36.736L236.138 36.9814V38.2974H228.879V36.9591L230.807 36.736V23.3978Z" fill="#69332B"/>
<path d="M243.558 23.1971L240.315 23.3086L239.43 28.171H237.524L237.91 21.725L252.541 21.725L252.814 28.171H251.022L250.137 23.3086L246.938 23.1971V36.736L250.114 36.9591V38.2974H240.655V36.9591L243.558 36.736V23.1971Z" fill="#69332B"/>
</svg>
