<svg width="112" height="32" viewBox="0 0 112 32" fill="none" xmlns="http://www.w3.org/2000/svg">
<path d="M0.75 22.75C4.5 22.75 3 23.5 12.75 23.5C15.75 23.5 18.75 22.75 19.5 19.75M0.75 15.143H3.132C3.27497 15.1431 3.41617 15.1114 3.54537 15.0502C3.67457 14.989 3.78853 14.8998 3.879 14.789L7.929 10.8L11.758 11.566C12.304 11.675 12.663 12.111 12.425 13.066C12.3787 13.2523 12.2777 13.4204 12.1352 13.5488C11.9927 13.6773 11.815 13.7602 11.625 13.787L9.75 14.06C9.63716 14.0713 9.52776 14.1053 9.42837 14.1599C9.32898 14.2145 9.24165 14.2886 9.17161 14.3778C9.10156 14.467 9.05026 14.5694 9.02077 14.6789C8.99128 14.7884 8.98422 14.9028 9 15.015V17.572C8.93725 17.8635 8.7831 18.1273 8.56 18.325L6.482 19.964" stroke="#98979A" stroke-width="1.5" stroke-linecap="round" stroke-linejoin="round"/>
<path d="M12 19.75H21.75C22.1478 19.75 22.5294 19.592 22.8107 19.3107C23.092 19.0294 23.25 18.6478 23.25 18.25V10C23.25 9.60218 23.092 9.22064 22.8107 8.93934C22.5294 8.65804 22.1478 8.5 21.75 8.5H10.5C10.1022 8.5 9.72064 8.65804 9.43934 8.93934C9.15804 9.22064 9 9.60218 9 10V11.018" stroke="#98979A" stroke-width="1.5" stroke-linecap="round" stroke-linejoin="round"/>
<path d="M12.4919 12.25H23.2499" stroke="#98979A" stroke-width="1.5" stroke-linecap="round" stroke-linejoin="round"/>
<path d="M20.25 15.25H18.75" stroke="#98979A" stroke-width="1.5" stroke-linecap="round" stroke-linejoin="round"/>
<path d="M46 25C50.9706 25 55 20.9706 55 16C55 11.0294 50.9706 7 46 7C41.0294 7 37 11.0294 37 16C37 20.9706 41.0294 25 46 25Z" fill="#E80B26"/>
<path d="M58 25C62.9706 25 67 20.9706 67 16C67 11.0294 62.9706 7 58 7C53.0294 7 49 11.0294 49 16C49 20.9706 53.0294 25 58 25Z" fill="#F59D31"/>
<path d="M52 22.7083C53.8413 21.0603 55 18.6655 55 16C55 13.3345 53.8413 10.9397 52 9.29175C50.1587 10.9397 49 13.3345 49 16C49 18.6655 50.1587 21.0603 52 22.7083Z" fill="#FC6020"/>
<path d="M82 16C82 8.26801 88.268 2 96 2C103.732 2 110 8.26801 110 16C110 23.732 103.732 30 96 30C88.268 30 82 23.732 82 16Z" fill="#172A73"/>
<path d="M85.5745 9.74463V10.3404L87.7524 10.6833C89.2956 10.9262 90.5394 12.0862 90.8989 13.6178L93.4485 24.4775C93.5116 24.7463 93.7497 24.9361 94.0238 24.9361H97.6015C97.8375 24.9361 98.0509 24.7947 98.1444 24.5763L104.316 10.1605C104.4 9.96385 104.257 9.74463 104.045 9.74463H100.748C100.51 9.74463 100.295 9.88845 100.203 10.1095L96.0689 20.0212L94.4197 11.201C94.2617 10.3564 93.5296 9.74463 92.6766 9.74463H85.5745Z" fill="white"/>
</svg>
