<svg width="24" height="24" viewBox="0 0 24 24" fill="none" xmlns="http://www.w3.org/2000/svg">
<path d="M7.92285 5.20459H9.9615" stroke="#42623B" stroke-width="2" stroke-linecap="round" stroke-linejoin="round"/>
<path d="M8.60205 8.60205H14.0384" stroke="#42623B" stroke-width="2" stroke-linecap="round" stroke-linejoin="round"/>
<path d="M8.60205 12H14.0384" stroke="#42623B" stroke-width="2" stroke-linecap="round" stroke-linejoin="round"/>
<path d="M8.60205 15.3979H14.0384" stroke="#42623B" stroke-width="2" stroke-linecap="round" stroke-linejoin="round"/>
<path d="M8.60205 18.7954H11.3202" stroke="#42623B" stroke-width="2" stroke-linecap="round" stroke-linejoin="round"/>
<path d="M18.7956 1.80664H20.1547C20.5152 1.80664 20.8609 1.94983 21.1157 2.20471C21.3706 2.45959 21.5138 2.80528 21.5138 3.16574V7.01651C21.5138 7.25681 21.4184 7.48727 21.2484 7.65719C21.0785 7.82711 20.8481 7.92257 20.6077 7.92257H17.4365V3.16574C17.4365 2.80528 17.5797 2.45959 17.8346 2.20471C18.0895 1.94983 18.4352 1.80664 18.7956 1.80664Z" stroke="#42623B" stroke-width="2" stroke-linecap="round" stroke-linejoin="round"/>
<path d="M19.475 1.80664H7.92271C7.2018 1.80664 6.51042 2.09302 6.00066 2.60278C5.4909 3.11254 5.20452 3.80392 5.20452 4.52483V18.1158C5.20452 20.834 3.84542 21.6277 2.48633 22.1931H13.3591C14.4405 22.1931 15.4775 21.7635 16.2422 20.9989C17.0068 20.2342 17.4364 19.1972 17.4364 18.1158V7.92257" stroke="#42623B" stroke-width="2" stroke-linecap="round" stroke-linejoin="round"/>
</svg>
