<svg width="24" height="24" viewBox="0 0 24 24" fill="none" xmlns="http://www.w3.org/2000/svg">
<path fill-rule="evenodd" clip-rule="evenodd" d="M5.23062 0.72543C4.55271 0.931859 3.70008 1.732 3.33457 2.50468C2.86861 3.48975 2.83275 4.65745 3.22664 6.01679C3.54643 7.12024 3.98588 8.00707 5.05377 9.70312L5.3343 10.1488L4.65614 10.8929C3.34842 12.3277 2.88034 13.1251 2.63712 14.3318C2.48491 15.0874 2.4646 16.4431 2.59497 17.1484C2.93464 18.9859 4.83443 21.1932 6.95721 22.2167C8.58386 23.001 10.121 23.348 11.9807 23.3509C14.4664 23.3546 16.7341 22.6263 18.6026 21.2238C19.5657 20.501 20.2513 19.6749 20.7754 18.6059C21.3296 17.4755 21.4844 16.8595 21.4911 15.7588C21.4976 14.7133 21.3833 14.1844 20.9471 13.2417C20.5332 12.3469 20.0987 11.7165 19.2973 10.848L18.6477 10.144L18.8934 9.78573C19.9519 8.24231 20.6708 5.52957 20.4601 3.87329C20.3425 2.9489 20.0982 2.29307 19.697 1.82421C19.0709 1.09282 18.09 0.92608 17.157 1.3924C15.6919 2.12463 13.9801 4.1885 12.6068 6.87829C12.3092 7.46121 12.0458 7.93865 12.0216 7.93916C11.9974 7.93976 11.8082 7.57109 11.6013 7.11999C11.149 6.13399 9.94937 3.96083 9.40641 3.14378C8.23093 1.37514 6.46176 0.350474 5.23062 0.72543ZM6.41893 2.57131C7.49022 3.2523 8.97988 5.49668 10.0632 8.06188C10.7423 9.66998 11.149 10.141 11.9205 10.2126C12.7265 10.2874 12.9548 10.0476 14.0301 7.99585C14.3986 7.29268 14.9949 6.27014 15.355 5.72359C16.3852 4.16046 17.8645 2.71638 18.2743 2.87369C18.7251 3.04664 18.8552 5.03734 18.4971 6.28297C18.2798 7.03866 17.7322 8.24503 17.1659 9.21497C16.9613 9.56553 16.7688 9.95417 16.7382 10.0785C16.6402 10.4769 16.9654 11.0088 17.9165 12.0059C18.895 13.0317 19.2417 13.5535 19.506 14.398C19.7046 15.0326 19.7396 16.1664 19.581 16.8289C19.143 18.6583 17.4972 20.2552 15.2607 21.0205C12.6426 21.9165 10.1567 21.7923 7.81656 20.6487C6.78385 20.1441 5.9715 19.5228 5.35503 18.7659C4.57149 17.804 4.28978 16.9959 4.28978 15.7099C4.28978 14.2045 4.56877 13.6023 5.9794 12.062C6.40746 11.5946 6.89679 11.0119 7.06675 10.7671C7.37252 10.3268 7.37448 10.3186 7.24879 9.9987C7.17893 9.82083 6.86458 9.28278 6.55031 8.80304C5.85456 7.74098 5.31288 6.67951 5.00423 5.77306C4.69616 4.86856 4.6654 3.73935 4.93462 3.22349C5.10994 2.88754 5.73499 2.33114 5.93691 2.33114C5.99427 2.33114 6.21115 2.43925 6.41893 2.57131ZM9.00631 13.3285C8.65584 13.4832 8.45537 13.7295 8.39945 14.0739C8.30062 14.6831 8.82615 15.3328 9.41839 15.3336C10.255 15.3347 10.7559 14.4481 10.3213 13.7353C10.1532 13.4595 9.7126 13.2061 9.4127 13.2126C9.32942 13.2145 9.14653 13.2666 9.00631 13.3285ZM13.5697 13.3515C12.8202 13.7208 12.9104 14.7554 13.7306 15.1985C14.1231 15.4105 14.4229 15.3337 14.8432 14.9135C15.2209 14.5356 15.2685 14.1833 15.001 13.7446C14.6943 13.2414 14.1155 13.0825 13.5697 13.3515ZM11.202 16.09C10.4895 16.2123 10.429 16.4528 10.8759 17.3855C11.3052 18.2812 11.2612 18.4446 10.719 17.9685C10.3586 17.6521 10.0538 17.64 9.82334 17.9329C9.54859 18.2823 9.53159 18.4537 9.73113 18.866C10.0111 19.4442 10.3804 19.5989 11.6025 19.6495C12.8014 19.6991 13.4169 19.5569 13.7579 19.1516C13.9977 18.8666 14.0488 18.432 13.8801 18.1116C13.7507 17.8659 13.6429 17.8014 13.3588 17.7998C13.1779 17.7988 13.081 17.8684 12.9467 18.0959C12.844 18.2701 12.7042 18.3934 12.6097 18.3934C12.3611 18.3934 12.4025 17.9124 12.702 17.3218C13.0104 16.7137 13.0289 16.4027 12.7668 16.2363C12.5323 16.0874 11.6809 16.0079 11.202 16.09Z" fill="#42623B"/>
</svg>
