<svg width="24" height="24" viewBox="0 0 24 24" fill="none" xmlns="http://www.w3.org/2000/svg">
<path d="M8.43262 18.4213H2.7248C2.34635 18.4213 1.9834 18.271 1.7158 18.0033C1.44819 17.7357 1.29785 17.3728 1.29785 16.9943V7.00566C1.29785 6.62721 1.44819 6.26426 1.7158 5.99666C1.9834 5.72905 2.34635 5.57871 2.7248 5.57871H16.9943C17.3728 5.57871 17.7357 5.72905 18.0033 5.99666C18.271 6.26426 18.4213 6.62721 18.4213 7.00566V8.43262M17.9609 5.95638L15.2772 1.93332C15.1472 1.73826 14.9711 1.57824 14.7646 1.46741C14.558 1.35657 14.3273 1.29834 14.0929 1.29785H5.62628C5.39137 1.29787 5.1601 1.35588 4.95299 1.46673C4.74588 1.57759 4.56935 1.73786 4.43905 1.93332L1.75828 5.95638M9.85957 1.29785V5.57871M16.9943 22.7022L12.1294 17.627C11.7022 17.1999 11.4202 16.6493 11.3234 16.0531C11.2266 15.4568 11.3199 14.8453 11.59 14.305C11.794 13.8971 12.0921 13.5435 12.4595 13.2734C12.827 13.0033 13.2534 12.8243 13.7036 12.7513C14.1538 12.6783 14.6149 12.7133 15.049 12.8534C15.483 12.9935 15.8775 13.2348 16.2 13.5573L16.9943 14.3516L17.7887 13.5573C18.1112 13.2348 18.5057 12.9935 18.9397 12.8534C19.3737 12.7133 19.8348 12.6783 20.285 12.7513C20.7352 12.8243 21.1617 13.0033 21.5291 13.2734C21.8966 13.5435 22.1947 13.8971 22.3987 14.305C22.6688 14.8453 22.762 15.4568 22.6652 16.0531C22.5684 16.6493 22.2865 17.1999 21.8593 17.627L16.9943 22.7022Z" stroke="#98979A" stroke-width="2" stroke-linecap="round" stroke-linejoin="round"/>
</svg>
