<svg width="22" height="14" viewBox="0 0 22 14" fill="none" xmlns="http://www.w3.org/2000/svg">
<path fill-rule="evenodd" clip-rule="evenodd" d="M5.53518 0H20C21.1046 0 22 0.89543 22 2V12C22 13.1046 21.1046 14 20 14H5.53518C4.86648 14 4.24201 13.6658 3.87108 13.1094L0.16795 7.5547C-0.0559832 7.2188 -0.0559832 6.7812 0.16795 6.4453L3.87108 0.8906C4.24201 0.334202 4.86648 0 5.53518 0ZM2.20185 7L5.53518 12H20V2H5.53518L2.20185 7ZM6 8C5.44772 8 5 7.55228 5 7C5 6.44772 5.44772 6 6 6C6.55228 6 7 6.44772 7 7C7 7.55228 6.55228 8 6 8Z" fill="#98979A"/>
</svg>
