<svg width="24" height="24" viewBox="0 0 24 24" fill="none" xmlns="http://www.w3.org/2000/svg">
<path fill-rule="evenodd" clip-rule="evenodd" d="M10.848 0.0400304C8.02233 0.307777 5.50323 1.5015 3.48224 3.5304C2.07482 4.94344 1.13605 6.49099 0.475436 8.48739C0.192313 9.34311 0.139372 9.64806 0.0727114 10.8076C-0.099556 13.8029 0.256764 15.6472 1.42019 17.7815C3.12178 20.9032 6.34477 23.2429 9.78055 23.8509C10.8114 24.0333 13.108 24.0522 14.0706 23.8863C17.6502 23.2693 21.0884 20.7181 22.7078 17.4773C23.0875 16.7174 23.5994 15.1586 23.7964 14.1623C24.0242 13.0103 24.0261 10.7626 23.8 9.70275C22.8842 5.40859 19.7866 1.9044 15.704 0.544311C14.4543 0.12796 12.2913 -0.0966971 10.848 0.0400304ZM13.896 2.01102C15.4911 2.25142 17.4547 3.16847 18.5137 4.16754C20.822 6.34496 22.1468 9.68912 21.8152 12.5007C21.6107 14.2342 20.906 16.0108 19.9035 17.3203C19.6231 17.6865 18.9647 18.3958 18.4404 18.8963C17.6908 19.6119 17.3238 19.8868 16.7226 20.1827C15.0524 21.0047 13.2047 21.3269 11.2637 21.1344C9.37754 20.9472 8.09157 20.5353 6.60653 19.6429C5.08716 18.7297 4.29626 17.9415 3.28346 16.3309C2.00513 14.2981 1.62174 12.5421 1.95706 10.2552C2.47285 6.73811 4.31071 4.27821 7.56436 2.75018C9.21522 1.97484 11.718 1.68269 13.896 2.01102ZM9.58185 3.91195C9.03734 4.18154 8.42993 4.88736 8.23097 5.48169C8.01754 6.11938 7.93624 7.93588 8.0749 8.96663C8.14083 9.45599 8.28124 9.96064 8.45489 10.3317C8.60644 10.6554 8.72972 10.9675 8.72899 11.0251C8.72825 11.0827 8.41134 11.4798 8.02472 11.9077C7.11459 12.9147 6.65358 13.6372 6.40876 14.4406C5.97123 15.8761 6.22554 16.7759 7.39642 17.9354C8.22802 18.7591 8.94315 19.1486 10.0478 19.3801C11.1193 19.6045 12.8746 19.6249 13.6348 19.4217C14.8399 19.0997 15.6838 18.4295 16.197 17.387L16.4905 16.7908L16.4356 15.3414C16.3993 14.3797 16.3182 13.6287 16.1948 13.1094C16.0925 12.679 16.0078 12.2798 16.0065 12.2223C16.0052 12.1649 16.3738 11.8436 16.8257 11.5084C17.8987 10.7125 18.5902 9.93136 19.0681 8.97528C19.5408 8.02943 19.5816 7.40849 19.2177 6.70128C18.8542 5.9949 18.6288 5.88175 17.5852 5.88175C16.8019 5.88175 16.6337 5.91185 16.1882 6.13191C15.5346 6.4549 14.2771 7.5489 13.5272 8.44707C13.203 8.83533 12.9218 9.13715 12.9024 9.11772C12.883 9.09829 12.8326 8.20464 12.7903 7.13181C12.7156 5.23549 12.7061 5.1668 12.4483 4.6639C12.0845 3.95421 11.641 3.71804 10.6725 3.71814C10.1473 3.71814 9.87593 3.76638 9.58185 3.91195ZM10.7889 6.12546C10.8214 6.43667 10.848 7.43123 10.848 8.33538V9.97943L11.2263 10.3245C11.7515 10.8036 12.186 11.0551 12.7019 11.1789C13.3729 11.3399 13.6869 11.1948 14.3682 10.4089C15.3682 9.25555 16.6805 8.00107 17.109 7.78893C17.5103 7.59015 17.5242 7.58932 17.5517 7.76094C17.597 8.04342 17.14 8.84427 16.6646 9.31549C16.4241 9.55378 15.8822 10.0141 15.4602 10.3384C14.114 11.3729 13.9567 11.8486 14.4022 13.5367C14.6893 14.6245 14.7879 15.8783 14.6252 16.3714C14.4779 16.8177 14.0391 17.3132 13.6199 17.5065C13.1214 17.7363 10.6317 17.7322 9.92731 17.5003C9.1667 17.2498 8.52274 16.7724 8.23668 16.2469C8.00751 15.8258 7.99858 15.766 8.09626 15.305C8.29063 14.388 8.67917 13.8055 9.94609 12.5312C11.0034 11.4678 11.0514 11.1089 10.3245 9.70275L9.91985 8.92013L9.91589 7.63112C9.9111 6.05899 10.0577 5.55949 10.5239 5.55949C10.7082 5.55949 10.7359 5.6187 10.7889 6.12546Z" fill="#42623B"/>
</svg>
